<svg xmlns="http://www.w3.org/2000/svg" xmlns:xlink="http://www.w3.org/1999/xlink" width="123.101" height="91.171" viewBox="0 0 123.101 91.171">
  <defs>
    <linearGradient id="linear-gradient" x1="0.391" y1="0.074" x2="1" y2="1.179" gradientUnits="objectBoundingBox">
      <stop offset="0" stop-color="#e858ea"/>
      <stop offset="0.634" stop-color="#6b4aec"/>
      <stop offset="1" stop-color="#3b0fe6"/>
    </linearGradient>
  </defs>
  <g id="Group_16242" data-name="Group 16242" transform="translate(-247 -5449.753)">
    <path id="Path_11112" data-name="Path 11112" d="M76.2,8.843c2.261-1.588,4.589-3.223,6.919-4.856.032-.023.084-.018.214-.041L79.444,26.027H51.929l7.779-5.514c-1.177-.584-2.251-1.181-3.374-1.664a32.983,32.983,0,0,0-27.947.966,33.932,33.932,0,0,0-13.349,12.1A34.7,34.7,0,0,0,9.99,44.877a35.61,35.61,0,0,0-.132,11.67A36.562,36.562,0,0,0,15.85,71.782,37.8,37.8,0,0,0,27.1,82.6a39.293,39.293,0,0,0,33.325,3.788c2.421-.824,4.7-2.061,7.044-3.115.234-.106.452-.249.677-.376l.106.183c-1.34.858-2.649,1.773-4.028,2.564a41.441,41.441,0,0,1-12.35,4.664,42.309,42.309,0,0,1-29.849-4.932,43.973,43.973,0,0,1-20.9-28.636A44.9,44.9,0,0,1,.242,42.124a45.705,45.705,0,0,1,4.729-16.07,47.335,47.335,0,0,1,28.2-23.817A48.937,48.937,0,0,1,69.706,5.179c2.191,1.1,4.282,2.407,6.5,3.663" transform="translate(247 5449.753)" fill="url(#linear-gradient)"/>
    <path id="Path_11113" data-name="Path 11113" d="M123.639,168.833a21.933,21.933,0,0,1,.4-2.54A14.908,14.908,0,0,1,134.6,155.454a16.314,16.314,0,0,1,10.961.349,9.547,9.547,0,0,1,6.477,7.842,13.634,13.634,0,0,1-1.92,9.29,36.176,36.176,0,0,1-6.68,7.706c-3.244,3.013-6.445,6.073-9.664,9.113l.05.185h15.753l-1.2,7.554h-28.6c.331-2.155.613-4.277,1.017-6.375.084-.439.579-.832.949-1.177,3.734-3.486,7.49-6.948,11.221-10.437,1.816-1.7,3.63-3.4,5.374-5.172a14.518,14.518,0,0,0,3.58-5.524,7.374,7.374,0,0,0,.208-4.2,3.414,3.414,0,0,0-4.228-2.345,5.3,5.3,0,0,0-3.849,3.393c-.386.877-.555,1.848-.856,2.765-.059.18-.275.438-.422.44-2.963.048-5.927.063-8.891.083-.04,0-.08-.035-.242-.109" transform="translate(148.907 5323.083)" fill="url(#linear-gradient)"/>
    <path id="Path_11114" data-name="Path 11114" d="M291.774,184.293h2.1c-.646,1.364-1.237,2.621-1.835,3.874q-2.071,4.334-4.147,8.664c-.565,1.18-1.115,2.366-1.707,3.532a.834.834,0,0,1-.569.427c-1.99.028-3.981.013-5.971.007a1.271,1.271,0,0,1-.262-.077l1.529-8.857H265.146c.061-.921.106-1.749.174-2.575a17.622,17.622,0,0,0,.21-2.356,4.192,4.192,0,0,1,1.173-2.921c2.213-2.8,4.4-5.623,6.585-8.442q4.57-5.882,9.134-11.771c1.177-1.518,2.354-3.034,3.514-4.564a1.257,1.257,0,0,1,1.114-.593c2.827.028,5.655.013,8.483.013h.691l-4.45,25.636m-7.059-12.771-.139-.028-9.5,12.73h7.169l2.471-12.7" transform="translate(29.858 5319.831)" fill="url(#linear-gradient)"/>
    <path id="Path_11115" data-name="Path 11115" d="M510.426,166.194H496.292c.614-1.293,1.188-2.509,1.769-3.721.535-1.116,1.063-2.238,1.636-3.334a.886.886,0,0,1,.631-.427q11.708-.032,23.415-.015c.11,0,.22.02.425.039-.5.887-.956,1.727-1.433,2.558-2.156,3.758-4.325,7.509-6.472,11.272-2.726,4.778-5.431,9.568-8.152,14.348q-3.836,6.737-7.7,13.457a1,1,0,0,1-.7.459c-3.278.03-6.555.02-9.977.02l20.7-34.656" transform="translate(-154.068 5319.789)" fill="url(#linear-gradient)"/>
    <path id="Path_11116" data-name="Path 11116" d="M370.788,208.616c.959-2,1.853-3.87,2.746-5.738q4.437-9.278,8.872-18.556,2.785-5.83,5.561-11.664c2.215-4.64,4.441-9.275,6.641-13.922a1.133,1.133,0,0,1,1.232-.751c1.505.053,3.013.017,4.626.017-.7,1.468-1.36,2.844-2.018,4.222q-3.235,6.775-6.471,13.551-3.815,7.96-7.645,15.913-3.128,6.528-6.234,13.067c-.544,1.139-1.079,2.282-1.647,3.409-.1.189-.334.43-.511.433-1.67.033-3.34.02-5.15.02" transform="translate(-56.659 5320.372)" fill="url(#linear-gradient)"/>
  </g>
</svg>
