<svg xmlns="http://www.w3.org/2000/svg" xmlns:xlink="http://www.w3.org/1999/xlink" width="91.311" height="91.302" viewBox="0 0 91.311 91.302">
  <defs>
    <linearGradient id="linear-gradient" x1="0.391" y1="0.074" x2="1" y2="1.179" gradientUnits="objectBoundingBox">
      <stop offset="0" stop-color="#e858ea"/>
      <stop offset="0.634" stop-color="#6b4aec"/>
      <stop offset="1" stop-color="#3b0fe6"/>
    </linearGradient>
  </defs>
  <path id="Union_12" data-name="Union 12" d="M-3619,91.3V61.954h29.347V91.3Zm14.674-3.257a11.322,11.322,0,0,0,6.821-2.286l1.81,1.8,2.3-2.305-1.806-1.807a11.323,11.323,0,0,0,2.286-6.822,11.322,11.322,0,0,0-2.286-6.821l1.8-1.812-2.305-2.305-1.808,1.808a11.322,11.322,0,0,0-6.821-2.286,11.323,11.323,0,0,0-6.822,2.286l-1.808-1.8-2.3,2.305,1.8,1.808a11.322,11.322,0,0,0-2.286,6.821,11.323,11.323,0,0,0,2.286,6.822l-1.8,1.807,2.306,2.306,1.807-1.8A11.323,11.323,0,0,0-3604.326,88.045Zm17.934-59.886,8.152-13.973v27.53l-6.044,6.043h0a1.633,1.633,0,0,0,0,2.306h0l6.044,6.044V72.925l-8.152,13.973Zm-22.423,55.265h0l2.393-2.393a4.808,4.808,0,0,0,2.094.489,4.808,4.808,0,0,0,2.094-.489l2.394,2.393a8.1,8.1,0,0,1-4.489,1.358A8.1,8.1,0,0,1-3608.815,83.424Zm71.334,1.356V81.519h3.261V84.78Zm-6.521,0V81.519h3.261V84.78Zm-6.521,0V81.519h3.261V84.78Zm-6.522,0V81.519h3.261V84.78Zm-6.521,0V81.519h3.26V84.78Zm-6.521,0V81.519h3.26V84.78Zm-27.443-3.664-2.393-2.393a4.808,4.808,0,0,0,.489-2.094,4.808,4.808,0,0,0-.489-2.094l2.393-2.394a8.1,8.1,0,0,1,1.358,4.489,8.1,8.1,0,0,1-1.358,4.489Zm-14.948-4.489a8.1,8.1,0,0,1,1.358-4.489l2.391,2.394a4.72,4.72,0,0,0,0,4.19l-2.391,2.394A8.1,8.1,0,0,1-3612.479,76.627Zm75,1.631V75h3.261v3.261Zm-68.476-1.63a1.63,1.63,0,0,1,1.63-1.63,1.631,1.631,0,0,1,1.63,1.63,1.631,1.631,0,0,1-1.63,1.63A1.63,1.63,0,0,1-3605.957,76.628Zm1.63-4.891a4.808,4.808,0,0,0-2.094.489l-2.394-2.393a8.1,8.1,0,0,1,4.489-1.358,8.1,8.1,0,0,1,4.489,1.358h0l-2.393,2.393A4.808,4.808,0,0,0-3604.326,71.737Zm66.845,0V68.476h3.261v3.262Zm0-6.522V61.954h3.261v3.261Zm0-6.521V55.433h3.261v3.261Zm-81.519,0V29.347h29.347V58.694Zm14.674-3.256a11.323,11.323,0,0,0,6.821-2.287l1.81,1.8,2.3-2.305-1.806-1.807a11.322,11.322,0,0,0,2.286-6.821A11.32,11.32,0,0,0-3595.2,37.2l1.8-1.812-2.305-2.305-1.808,1.808a11.317,11.317,0,0,0-6.821-2.287,11.318,11.318,0,0,0-6.822,2.287l-1.808-1.8-2.3,2.305,1.8,1.808a11.32,11.32,0,0,0-2.286,6.821,11.322,11.322,0,0,0,2.286,6.821l-1.8,1.808,2.306,2.306,1.807-1.806A11.318,11.318,0,0,0-3604.326,55.438Zm23.5-6.528,30.3-30.3,4.215,4.216-30.3,30.3Zm-27.989,1.906h0l2.393-2.393a4.808,4.808,0,0,0,2.094.489,4.808,4.808,0,0,0,2.094-.489l2.394,2.393a8.1,8.1,0,0,1-4.489,1.358A8.1,8.1,0,0,1-3608.815,50.816Zm11.284-2.307-2.393-2.393a4.811,4.811,0,0,0,.489-2.094,4.812,4.812,0,0,0-.489-2.1l2.393-2.394a8.1,8.1,0,0,1,1.358,4.489,8.1,8.1,0,0,1-1.358,4.489Zm-14.948-4.489a8.1,8.1,0,0,1,1.358-4.489l2.391,2.394a4.718,4.718,0,0,0,0,4.189l-2.391,2.394A8.1,8.1,0,0,1-3612.479,44.02Zm79.889-13.155a29.188,29.188,0,0,0-4.094-14.786,1.631,1.631,0,0,0-1.2-.787,1.692,1.692,0,0,0-.2-.013,1.628,1.628,0,0,0-1.152.478L-3544,20.52l-4.217-4.216,5.325-5.325a1.629,1.629,0,0,0,.476-1.22,1.631,1.631,0,0,0-.575-1.177,29.3,29.3,0,0,0-19.879-6.937A25.96,25.96,0,0,1-3553.784,0a26.083,26.083,0,0,1,18.843,8.037,26.092,26.092,0,0,1,7.228,19.17,26.086,26.086,0,0,1-8.847,18.478A29.185,29.185,0,0,0-3532.59,30.865Zm-73.366,13.155a1.63,1.63,0,0,1,1.63-1.63,1.631,1.631,0,0,1,1.63,1.63,1.63,1.63,0,0,1-1.63,1.63A1.63,1.63,0,0,1-3605.957,44.02Zm1.63-4.89a4.808,4.808,0,0,0-2.094.489l-2.394-2.393a8.1,8.1,0,0,1,4.489-1.358,8.1,8.1,0,0,1,4.489,1.358h0l-2.393,2.393A4.808,4.808,0,0,0-3604.326,39.13Zm-13.466-13.043,9.509-16.3h28.833l-9.511,16.3Zm82.529-22.737,2.674-2.675,4.216,4.217-2.674,2.674A29.459,29.459,0,0,0-3535.263,3.35Z" transform="translate(3619)" fill="url(#linear-gradient)"/>
</svg>
