<svg xmlns="http://www.w3.org/2000/svg" width="189.996" height="38" viewBox="0 0 189.996 38">
  <g id="Group_500" data-name="Group 500" transform="translate(0.547)">
    <path id="Path_708" data-name="Path 708" d="M28.158,15.968l7.38-7.379,7.384,7.383,4.294-4.294L35.538,0,23.864,11.674Z" transform="translate(-17.084)" fill="#f3ba2f"/>
    <rect id="Rectangle_326" data-name="Rectangle 326" width="6.073" height="6.073" transform="translate(3.747 14.705) rotate(45)" fill="#f3ba2f"/>
    <path id="Path_709" data-name="Path 709" d="M28.143,73.4l7.38,7.379L42.906,73.4l4.3,4.292,0,0L35.523,89.368,23.849,77.694l-.006-.006Z" transform="translate(-17.07 -51.368)" fill="#f3ba2f"/>
    <rect id="Rectangle_327" data-name="Rectangle 327" width="6.073" height="6.073" transform="translate(37.454 19.001) rotate(135)" fill="#f3ba2f"/>
    <path id="Path_710" data-name="Path 710" d="M56.949,53.137h0L52.593,48.78,49.373,52h0l-.37.37-.763.763h0l-.006.006.006.006L52.593,57.5l4.357-4.357,0,0Z" transform="translate(-34.14 -34.14)" fill="#f3ba2f"/>
    <path id="Path_711" data-name="Path 711" d="M148.37,30.679h9.339a7.124,7.124,0,0,1,5.259,1.785,4.658,4.658,0,0,1,1.379,3.426v.058a4.945,4.945,0,0,1-.214,1.526,4.744,4.744,0,0,1-.572,1.195,4.551,4.551,0,0,1-.829.936,5.561,5.561,0,0,1-1.015.691,6.8,6.8,0,0,1,2.751,1.8,4.606,4.606,0,0,1,1,3.152V45.3a5.23,5.23,0,0,1-.532,2.418,4.7,4.7,0,0,1-1.523,1.727,7.138,7.138,0,0,1-2.385,1.036,12.85,12.85,0,0,1-3.089.345h-9.57Zm8.405,8.146a4.616,4.616,0,0,0,2.332-.5,1.74,1.74,0,0,0,.863-1.626v-.058a1.774,1.774,0,0,0-.749-1.54,3.7,3.7,0,0,0-2.159-.533h-4.376v4.26Zm1.18,8.118a4.259,4.259,0,0,0,2.3-.532,1.824,1.824,0,0,0,.835-1.656V44.7a1.9,1.9,0,0,0-.777-1.6,4.188,4.188,0,0,0-2.5-.59h-5.124v4.433h5.268Z" transform="translate(-104.222 -21.471)" fill="#fff"/>
    <path id="Path_712" data-name="Path 712" d="M223.875,30.679h4.434V50.83h-4.434Z" transform="translate(-157.066 -21.471)" fill="#fff"/>
    <path id="Path_713" data-name="Path 713" d="M261.02,30.679h4.087l9.442,12.407V30.679h4.376V50.83h-3.771L265.4,38.02V50.83H261.02Z" transform="translate(-183.062 -21.471)" fill="#fff"/>
    <path id="Path_714" data-name="Path 714" d="M345.258,30.2h4.087l8.637,20.295h-4.635L351.5,45.976h-8.521l-1.842,4.519h-4.52Zm4.663,11.86-2.677-6.534-2.677,6.534Z" transform="translate(-235.973 -21.136)" fill="#fff"/>
    <path id="Path_715" data-name="Path 715" d="M423.738,30.679h4.088l9.442,12.407V30.679h4.376V50.83h-3.771l-9.759-12.81V50.83h-4.376Z" transform="translate(-296.943 -21.471)" fill="#fff"/>
    <path id="Path_716" data-name="Path 716" d="M512.458,50.37a10.438,10.438,0,0,1-4.117-.806,9.935,9.935,0,0,1-5.44-5.5,10.614,10.614,0,0,1-.777-4.059v-.057A10.5,10.5,0,0,1,502.9,35.9a10.387,10.387,0,0,1,2.159-3.31,10.007,10.007,0,0,1,3.31-2.246,10.779,10.779,0,0,1,4.261-.82,13.361,13.361,0,0,1,2.576.23,10.79,10.79,0,0,1,2.116.633,9.218,9.218,0,0,1,1.756.979,11.966,11.966,0,0,1,1.5,1.267l-2.821,3.253a10.693,10.693,0,0,0-2.4-1.67,6.127,6.127,0,0,0-2.749-.6,5.58,5.58,0,0,0-4.2,1.842,6.326,6.326,0,0,0-1.209,2,6.811,6.811,0,0,0-.431,2.433v.057a6.923,6.923,0,0,0,.431,2.447,6.4,6.4,0,0,0,1.2,2.015,5.536,5.536,0,0,0,4.217,1.871,6.171,6.171,0,0,0,2.922-.633,11.307,11.307,0,0,0,2.375-1.727l2.821,2.85a14.648,14.648,0,0,1-1.612,1.5,9.579,9.579,0,0,1-1.828,1.138,9.472,9.472,0,0,1-2.173.719A13.113,13.113,0,0,1,512.458,50.37Z" transform="translate(-351.803 -20.666)" fill="#fff"/>
    <path id="Path_717" data-name="Path 717" d="M581.467,30.679h15.171v3.944H585.843v4.088h9.5v3.944h-9.5v4.232h10.94V50.83H581.467Z" transform="translate(-407.333 -21.471)" fill="#fff"/>
  </g>
</svg>
