<svg xmlns="http://www.w3.org/2000/svg" width="165" height="36.583" viewBox="0 0 165 36.583">
  <g id="Bitcoin-1" transform="translate(-271.191 -314.094)">
    <g id="Group_28" data-name="Group 28" transform="translate(271.191 314.094)">
      <path id="Path_19" data-name="Path 19" d="M328.063,340.225c-2.608,9.8-13.2,15.763-23.661,13.319s-16.821-12.368-14.212-22.167,13.2-15.764,23.657-13.321,16.824,12.37,14.217,22.169Z" transform="translate(-289.604 -317.508)" fill="#f7931a"/>
      <path id="Path_20" data-name="Path 20" d="M323.8,337.608c.389-2.339-1.589-3.6-4.294-4.435l.877-3.168-2.142-.481-.854,3.085c-.563-.126-1.142-.246-1.716-.364l.86-3.105-2.141-.481-.878,3.167c-.466-.1-.924-.19-1.368-.289l0-.01-2.954-.664-.57,2.06s1.589.328,1.556.348c.868.2,1.024.712,1,1.122l-1,3.609a1.94,1.94,0,0,1,.223.064l-.226-.051-1.4,5.056a.793.793,0,0,1-.982.458c.021.028-1.557-.35-1.557-.35l-1.063,2.208,2.788.626c.519.117,1.027.24,1.527.355l-.886,3.2,2.14.481.878-3.171c.585.143,1.152.275,1.707.4l-.875,3.156,2.142.481.887-3.2c3.653.622,6.4.371,7.556-2.6.932-2.395-.046-3.776-1.968-4.677a3.214,3.214,0,0,0,2.735-2.832Zm-4.894,6.179c-.662,2.395-5.141,1.1-6.593.776l1.176-4.246C314.946,340.643,319.6,341.289,318.911,343.787Zm.663-6.214c-.6,2.178-4.332,1.072-5.541.8l1.066-3.851C316.308,334.794,320.2,335.3,319.573,337.573Z" transform="translate(-295.676 -321.856)" fill="#fff"/>
    </g>
    <path id="Path_21" data-name="Path 21" d="M370.063,327.006a8.62,8.62,0,0,1,3.554.676,7.094,7.094,0,0,1,2.49,1.827,7.494,7.494,0,0,1,1.454,2.7,11.491,11.491,0,0,1,.468,3.335,12.526,12.526,0,0,1-1.09,5.182,13.388,13.388,0,0,1-2.977,4.25,14.075,14.075,0,0,1-4.454,2.856,14.521,14.521,0,0,1-5.564,1.053c-.258,0-.712-.007-1.353-.019a21.292,21.292,0,0,1-2.2-.177q-1.245-.161-2.635-.479a13.891,13.891,0,0,1-2.635-.873l7.409-28.866,6.636-.954-2.653,10.243a10.866,10.866,0,0,1,1.711-.555,8.166,8.166,0,0,1,1.841-.2ZM364.5,344a6.178,6.178,0,0,0,2.826-.676,7.323,7.323,0,0,0,2.294-1.807,8.94,8.94,0,0,0,1.519-2.562,8.162,8.162,0,0,0,.557-2.98,5.515,5.515,0,0,0-.685-2.977,2.772,2.772,0,0,0-2.527-1.072,8.517,8.517,0,0,0-1.561.2,4.013,4.013,0,0,0-1.737.836l-2.825,10.878c.17.028.321.055.449.079a3.594,3.594,0,0,0,.4.059,5.03,5.03,0,0,0,.517.023h.769Z" transform="translate(-38.781 -0.817)" fill="#fff"/>
    <path id="Path_22" data-name="Path 22" d="M405.812,348.674h-6.339l5.353-20.833h6.382ZM408.9,325.3a4.149,4.149,0,0,1-2.4-.732,2.513,2.513,0,0,1-1.073-2.238,3.49,3.49,0,0,1,.363-1.563,4.2,4.2,0,0,1,.966-1.268,4.787,4.787,0,0,1,1.391-.852,4.546,4.546,0,0,1,1.694-.315,4.149,4.149,0,0,1,2.4.732,2.536,2.536,0,0,1,1.07,2.239,3.467,3.467,0,0,1-.364,1.566,4.139,4.139,0,0,1-.962,1.268,4.7,4.7,0,0,1-1.391.85A4.469,4.469,0,0,1,408.9,325.3Z" transform="translate(-61.09 -1.201)" fill="#fff"/>
    <path id="Path_23" data-name="Path 23" d="M427.886,326.243l6.639-1.029-1.63,6.64H440l-1.284,5.223h-7.067l-1.882,7.879a8.912,8.912,0,0,0-.3,1.84,3.364,3.364,0,0,0,.213,1.478,1.858,1.858,0,0,0,.921.961,4.211,4.211,0,0,0,1.905.346,10.141,10.141,0,0,0,1.994-.194,14.145,14.145,0,0,0,1.946-.535l.473,4.884a22.758,22.758,0,0,1-2.784.812,16.032,16.032,0,0,1-3.556.342,9.843,9.843,0,0,1-4.584-.875,5.092,5.092,0,0,1-2.314-2.4,7.631,7.631,0,0,1-.6-3.488,22.573,22.573,0,0,1,.6-4.155Z" transform="translate(-73.18 -6.907)" fill="#fff"/>
    <path id="Path_24" data-name="Path 24" d="M454.56,350.764a15.817,15.817,0,0,1,.942-5.483,13.488,13.488,0,0,1,2.7-4.5,12.644,12.644,0,0,1,4.263-3.039,13.62,13.62,0,0,1,5.586-1.114,14.759,14.759,0,0,1,3.447.365,13.957,13.957,0,0,1,2.764.962l-2.186,4.971c-.571-.232-1.164-.436-1.777-.621a7.731,7.731,0,0,0-2.248-.28,6.281,6.281,0,0,0-5.033,2.183,8.751,8.751,0,0,0-1.865,5.869,6.035,6.035,0,0,0,.944,3.533q.941,1.351,3.468,1.348a11.116,11.116,0,0,0,2.4-.256,11.813,11.813,0,0,0,2.057-.642l.473,5.1a22.939,22.939,0,0,1-2.656.838,14.761,14.761,0,0,1-3.47.361,11.709,11.709,0,0,1-4.5-.769,8.562,8.562,0,0,1-3.039-2.078,7.831,7.831,0,0,1-1.736-3.064A12.57,12.57,0,0,1,454.56,350.764Z" transform="translate(-89.302 -12.286)" fill="#fff"/>
    <path id="Path_25" data-name="Path 25" d="M499.875,360.357a10.365,10.365,0,0,1-3.942-.687,7.277,7.277,0,0,1-2.76-1.927,8.327,8.327,0,0,1-1.649-2.933,11.848,11.848,0,0,1-.554-3.744,16.531,16.531,0,0,1,.832-5.142,14.558,14.558,0,0,1,2.465-4.624,13.162,13.162,0,0,1,3.98-3.366,10.954,10.954,0,0,1,5.393-1.305,10.419,10.419,0,0,1,3.923.687,7.33,7.33,0,0,1,2.784,1.927,8.366,8.366,0,0,1,1.645,2.934,11.877,11.877,0,0,1,.557,3.746,17.078,17.078,0,0,1-.811,5.142,14.846,14.846,0,0,1-2.4,4.624,12.571,12.571,0,0,1-3.961,3.36A11.245,11.245,0,0,1,499.875,360.357Zm3.168-18.329a4.005,4.005,0,0,0-2.482.812,7,7,0,0,0-1.8,2.057,10.155,10.155,0,0,0-1.1,2.72,11.722,11.722,0,0,0-.362,2.8,6.832,6.832,0,0,0,.684,3.344,2.619,2.619,0,0,0,2.485,1.2,3.984,3.984,0,0,0,2.485-.815,7.03,7.03,0,0,0,1.8-2.055,10.182,10.182,0,0,0,1.1-2.72,11.881,11.881,0,0,0,.362-2.8,6.78,6.78,0,0,0-.687-3.341A2.618,2.618,0,0,0,503.043,342.027Z" transform="translate(-107.931 -12.286)" fill="#fff"/>
    <path id="Path_26" data-name="Path 26" d="M539.187,348.674h-6.344l5.353-20.833h6.385Zm3.08-23.372a4.141,4.141,0,0,1-2.4-.732,2.521,2.521,0,0,1-1.072-2.238,3.485,3.485,0,0,1,.365-1.563,4.146,4.146,0,0,1,.964-1.268,4.781,4.781,0,0,1,1.392-.852,4.514,4.514,0,0,1,1.689-.315,4.151,4.151,0,0,1,2.4.732,2.536,2.536,0,0,1,1.073,2.239,3.519,3.519,0,0,1-.367,1.566,4.126,4.126,0,0,1-.961,1.268,4.75,4.75,0,0,1-1.391.85A4.484,4.484,0,0,1,542.267,325.3Z" transform="translate(-130.108 -1.201)" fill="#fff"/>
    <path id="Path_27" data-name="Path 27" d="M559.06,338.335c.481-.141,1.018-.31,1.6-.494s1.242-.355,1.973-.51a23.641,23.641,0,0,1,2.439-.388,27.429,27.429,0,0,1,3.06-.152q5.015,0,6.92,2.915t.666,7.965l-2.916,12.162h-6.38l2.826-11.906c.172-.743.308-1.462.408-2.164a5.13,5.13,0,0,0-.023-1.84,2.2,2.2,0,0,0-.79-1.287,3.063,3.063,0,0,0-1.907-.492,12.883,12.883,0,0,0-2.526.26l-4.155,17.428h-6.383Z" transform="translate(-140.018 -12.362)" fill="#fff"/>
  </g>
</svg>
