<svg xmlns="http://www.w3.org/2000/svg" xmlns:xlink="http://www.w3.org/1999/xlink" width="76.594" height="112" viewBox="0 0 76.594 112">
  <defs>
    <linearGradient id="linear-gradient" x1="0.391" y1="0.074" x2="1" y2="1.179" gradientUnits="objectBoundingBox">
      <stop offset="0" stop-color="#e858ea"/>
      <stop offset="0.634" stop-color="#6b4aec"/>
      <stop offset="1" stop-color="#3b0fe6"/>
    </linearGradient>
  </defs>
  <path id="Path_11187" data-name="Path 11187" d="M182.242,44.2v5.75a3.33,3.33,0,1,0,6.661,0V41.031l6.66-3.172V54.949a3.33,3.33,0,0,0,6.66,0V37.859l6.66,3.172v8.922a3.33,3.33,0,1,0,6.661,0V44.2l18.115,8.626L198.892,69.569,164.125,52.829ZM195.563,112,162.494,96.253a3.33,3.33,0,0,1-1.9-3.007V58.521l34.967,16.837ZM237.19,58.52V93.245a3.329,3.329,0,0,1-1.9,3.007L202.224,112V75.356ZM215.543,44.2l-6.66-3.172v-4.4a3.33,3.33,0,0,1,1.841-2.978l11.48-5.74v-4.6a3.347,3.347,0,0,1,.066-.664,8.326,8.326,0,1,1,6.528,0,3.347,3.347,0,0,1,.066.664v6.66a3.331,3.331,0,0,1-1.841,2.979l-11.48,5.74ZM188.9,41.031l-6.66,3.172V38.69l-11.48-5.74a3.331,3.331,0,0,1-1.841-2.979v-6.66a3.347,3.347,0,0,1,.066-.664,8.325,8.325,0,1,1,6.528,0,3.347,3.347,0,0,1,.066.664v4.6l11.48,5.74a3.331,3.331,0,0,1,1.841,2.978Zm13.32-3.172-1.9-.9a3.332,3.332,0,0,0-2.864,0l-1.9.9V16.651a3.347,3.347,0,0,1,.066-.664,8.325,8.325,0,1,1,6.529,0,3.346,3.346,0,0,1,.066.664Z" transform="translate(-160.596)" fill="url(#linear-gradient)"/>
</svg>
