<svg xmlns="http://www.w3.org/2000/svg" xmlns:xlink="http://www.w3.org/1999/xlink" width="110.102" height="102.215" viewBox="0 0 110.102 102.215">
  <defs>
    <linearGradient id="linear-gradient" x1="0.391" y1="0.074" x2="1" y2="1.179" gradientUnits="objectBoundingBox">
      <stop offset="0" stop-color="#e858ea"/>
      <stop offset="0.634" stop-color="#6b4aec"/>
      <stop offset="1" stop-color="#3b0fe6"/>
    </linearGradient>
  </defs>
  <g id="buy" transform="translate(-2 -1023.358)">
    <path id="Path_654" data-name="Path 654" d="M40.093,1026.36a39.277,39.277,0,0,0-32.226,16.865,16.043,16.043,0,0,1,5.545,2.573,12.693,12.693,0,0,1,5.046,10.176,12.368,12.368,0,0,1-3.494,8.356,15.1,15.1,0,0,1,4.04,5.553c-.015-.358-.092-.69-.092-1.052v-26.358H33.235v26.358a6.361,6.361,0,0,0,1.621,4.807,6.312,6.312,0,0,0,4.731,1.6,6.042,6.042,0,0,0,4.6-1.559c.917-.928,1.582-2.373,1.582-4.846v-26.358h23.4l8.655,14.746.43-.745A39.323,39.323,0,0,0,40.093,1026.36Zm20,27.587v14.884c0,5.829-1.918,11.04-5.63,14.646s-8.984,5.422-14.93,5.422-11.228-1.821-14.953-5.422a18.27,18.27,0,0,1-4.746-8.379,13.46,13.46,0,0,1-5.207,9.954A17.474,17.474,0,0,1,7.783,1088a39.189,39.189,0,0,0,64.167.63h-1.2v-15.445Z" transform="translate(16.958 8.802)" fill="url(#linear-gradient)"/>
    <g id="Group_484" data-name="Group 484" transform="translate(2 1055.19)">
      <path id="Path_655" data-name="Path 655" d="M2,1031.479v38.292H19.012c8.643,0,13.949-3.939,13.949-10.5a9.288,9.288,0,0,0-8.205-9.682,8.384,8.384,0,0,0,6.728-8.534c0-5.963-4.923-9.573-12.855-9.573H2Zm6.455,5.744H18.3c4.1,0,6.564,1.751,6.564,4.978s-2.462,5.142-6.564,5.142H8.455Zm0,15.809H18.3c5.033,0,8.041,2.024,8.041,5.415,0,3.61-3.009,5.58-8.041,5.58H8.455Zm64.662-21.553H66.662v22.428c0,6.509-3.884,10.339-10.12,10.339-6.291,0-10.284-3.884-10.284-10.339v-22.428H39.8v22.428c0,10.01,6.345,16.137,16.684,16.137s16.629-6.127,16.629-16.137v-22.428ZM98.043,1057l14.058-25.546h-6.564l-10.722,18.654-10.94-18.654h-6.51l14.277,25.765v12.526h6.4V1057Z" transform="translate(-2 -1031.453)" fill="url(#linear-gradient)"/>
    </g>
    <path id="Path_656" data-name="Path 656" d="M48.787,1023.4l-1.375.04h-.138l-2.542.232-1.958.169.346,3.917,1.958-.169,2.412-.224h.054l1.321-.039,1.966-.04-.077-3.932Zm5.7,4.11,1.951.232.845.1h.046l2.849.538,1.935.37.73-3.871-1.935-.362-2.988-.561-.131-.04-.891-.106-1.951-.232Zm-17.864-2.335-2.773.83-.131.047-.968.362-1.843.692,1.382,3.678,1.836-.683.852-.322h.008l2.765-.83,1.882-.568L38.5,1024.62Zm28.869,4.646,1.82.745,2.135.875h.031l1.306.638,1.766.868,1.736-3.533-1.766-.86-1.428-.7-.123-.055-2.166-.891-1.82-.745Zm-40.136-.055-.845.453-.115.063-2.519,1.582-1.667,1.037,2.089,3.333,1.667-1.036,2.519-1.574.73-.393,1.736-.929-1.859-3.464Zm50.335,5.092,1.636,1.1.223.146.046.039.061.04,2.4,1.843.184.161,1.475,1.3,2.6-2.949-1.475-1.3-.184-.161-.1-.082-2.6-2-.108-.079-.338-.224-1.628-1.091Zm-60.3,2.1-1.69,1.605-.092.09-1.083,1.183-1.329,1.444,2.9,2.665,1.329-1.451.991-1.083.061-.055.031-.04,1.6-1.513,1.428-1.352-2.711-2.849Zm68.975,5.053,1.283,1.483,1.152,1.336.031.039,1.2,1.6,1.183,1.567,3.141-2.365-1.183-1.567-1.283-1.705-.084-.1-1.175-1.367-1.29-1.482Zm-76.862,4.209-.307.446-.077.114-1.736,2.9-1.014,1.689,3.379,2.02,1.006-1.69,1.743-2.9.238-.338,1.121-1.613-3.233-2.243Zm83.59,4.954.96,1.713.039.079.96,1.721,3.433-1.913-.96-1.721-.039-.075-.96-1.72Zm5.637,30.459-.023.145v.04l-.7,3.525-.376,1.935,3.855.76.376-1.935.73-3.687.023-.161.023-.169.215-1.958-3.909-.438ZM93.7,1092.508l-.092.251-.015.04-1.475,3.133-.837,1.782,3.564,1.674.837-1.782,1.49-3.172.061-.145.146-.4.691-1.843-3.679-1.383Zm-89.127,5.268.968,1.713,1.114,1.966.084.138.945,1.383,1.106,1.628,3.249-2.212-1.106-1.628-.9-1.329-1.068-1.882L8,1095.841Zm83.6,4.577-.177.26-.046.063-.046.063-2.081,2.573-1.236,1.528,3.057,2.473,1.236-1.528,2.181-2.7.092-.122.261-.393,1.114-1.62-3.249-2.219Zm-76.763,5.606,1.352,1.421L14.5,1111.2l.115.106,1.06.945,1.467,1.306,2.619-2.934-1.467-1.306-1.021-.914-.038-.04-1.62-1.7-1.359-1.428Zm69.044,2.65-.292.267-.046.039-2.642,2-1.567,1.19,2.389,3.134,1.559-1.2,2.765-2.1.123-.1.338-.307,1.467-1.313-2.627-2.926ZM20.471,1116.2l1.659,1.052,2.15,1.375.138.079,1.213.652,1.736.922,1.843-3.479-1.736-.922-1.152-.615-.061-.039-2.02-1.291-1.659-1.06Zm50.535.591-.415.217-3.034,1.313-1.8.783,1.559,3.61,1.8-.784,3.11-1.344.146-.071.476-.251,1.736-.929-1.851-3.464Zm-39.775,5.254,1.859.63,2.4.822.154.047,1.352.339,1.9.484.968-3.809-1.9-.484-1.2-.3-2.412-.814-1.859-.637Zm29.131-1.513-.845.208-2.865.461-1.943.314.63,3.886,1.943-.314,2.965-.484.161-.04.9-.224,1.9-.469-.945-3.817Zm-17.288,4.638,1.958.169,2.619.232h3.433l.023-3.932H47.912l-2.534-.224-1.958-.169Z" transform="translate(6.958)" fill="url(#linear-gradient)"/>
  </g>
</svg>
