<svg id="Group_489" data-name="Group 489" xmlns="http://www.w3.org/2000/svg" width="50" height="50" viewBox="0 0 50 50">
  <circle id="Ellipse_71" data-name="Ellipse 71" cx="25" cy="25" r="25" fill="#00c790"/>
  <path id="iconmonstr-wechat-1" d="M21.5,19.525A5.672,5.672,0,0,0,24,14.971c0-3.326-3.237-6.023-7.229-6.023s-7.229,2.7-7.229,6.023,3.237,6.024,7.229,6.024a8.533,8.533,0,0,0,2.36-.33l.212-.032a.765.765,0,0,1,.384.111l1.583.914.139.045a.241.241,0,0,0,.241-.241l-.039-.176-.326-1.215-.025-.154A.481.481,0,0,1,21.5,19.525ZM8.675,2.3C3.884,2.3,0,5.533,0,9.526A6.8,6.8,0,0,0,3,14.99a.575.575,0,0,1,.243.471l-.03.184L2.819,17.1l-.047.211a.29.29,0,0,0,.289.29l.168-.054,1.9-1.1a.908.908,0,0,1,.46-.133l.255.038a10.258,10.258,0,0,0,2.832.4l.476-.012a5.586,5.586,0,0,1-.291-1.771c0-3.641,3.542-6.593,7.911-6.593l.471.012C16.589,4.938,13,2.3,8.675,2.3Zm5.686,11.711a.964.964,0,1,1,.964-.964A.964.964,0,0,1,14.361,14.008Zm4.82,0a.964.964,0,1,1,.963-.964A.964.964,0,0,1,19.181,14.008ZM5.783,8.369A1.157,1.157,0,1,1,6.94,7.213,1.156,1.156,0,0,1,5.783,8.369Zm5.783,0a1.157,1.157,0,1,1,1.157-1.156A1.156,1.156,0,0,1,11.566,8.369Z" transform="translate(13 12.703)" fill="#fff"/>
</svg>
