<svg xmlns="http://www.w3.org/2000/svg" width="32.155" height="26" viewBox="0 0 32.155 26">
  <path id="Path_17" data-name="Path 17" d="M28.808,25.379a7.6,7.6,0,0,0,3.347-6.1c0-4.456-4.337-8.07-9.685-8.07s-9.685,3.613-9.685,8.07,4.337,8.071,9.685,8.071a11.432,11.432,0,0,0,3.162-.442l.284-.043a1.025,1.025,0,0,1,.514.149l2.121,1.225.186.06a.323.323,0,0,0,.323-.323l-.052-.236-.437-1.628-.033-.206A.644.644,0,0,1,28.808,25.379ZM11.623,2.3C5.2,2.3,0,6.633,0,11.982A9.117,9.117,0,0,0,4.015,19.3a.771.771,0,0,1,.326.631l-.04.247-.524,1.953-.063.283a.389.389,0,0,0,.387.389l.225-.072,2.544-1.47a1.216,1.216,0,0,1,.616-.178l.342.051a13.743,13.743,0,0,0,3.794.532l.638-.016a7.484,7.484,0,0,1-.39-2.373c0-4.878,4.746-8.833,10.6-8.833l.631.016C22.226,5.835,17.42,2.3,11.623,2.3Zm7.618,15.69A1.292,1.292,0,1,1,20.532,16.7,1.291,1.291,0,0,1,19.241,17.987Zm6.458,0a1.292,1.292,0,1,1,1.29-1.292A1.291,1.291,0,0,1,25.7,17.987ZM7.748,10.432A1.549,1.549,0,1,1,9.3,8.883,1.549,1.549,0,0,1,7.748,10.432Zm7.748,0a1.549,1.549,0,1,1,1.55-1.549A1.549,1.549,0,0,1,15.5,10.432Z" transform="translate(0 -2.297)" fill="#fff"/>
</svg>
