<svg xmlns="http://www.w3.org/2000/svg" width="118.913" height="31.4" viewBox="0 0 118.913 31.4">
  <g id="Group_499" data-name="Group 499" transform="translate(-15.1 -242.4)">
    <path id="Path_703" data-name="Path 703" d="M63.585,242.4H49.511l-1.17,6.522,12.707.02c6.264,0,8.108,2.28,8.048,6.046a26.911,26.911,0,0,1-1.229,6.244c-.971,2.815-2.934,6.046-10.368,6.026H45.15L44,273.78H58.035c4.956,0,7.057-.575,9.3-1.606,4.936-2.28,7.89-7.156,9.059-13.539C78.155,249.16,75.955,242.4,63.585,242.4Z" transform="translate(-23.171)" fill="#008de4"/>
    <path id="Path_704" data-name="Path 704" d="M362.4,307.635l.991-5.669H375.4a1.664,1.664,0,0,0,1.744-1.507,1.124,1.124,0,0,0-1.229-1.507h-5.749c-4.54,0-6.7-2.637-5.907-7.176.813-4.54,3.925-7.176,8.465-7.176h13.064l-1.031,5.669H373.243a1.664,1.664,0,0,0-1.744,1.507,1.124,1.124,0,0,0,1.229,1.507h5.749c4.539,0,6.7,2.637,5.907,7.176s-3.866,7.176-8.405,7.176Z" transform="translate(-278.454 -33.835)" fill="#008de4"/>
    <path id="Path_705" data-name="Path 705" d="M230.445,307.554c-7.473,0-10.823-4.064-9.5-11.537,1.269-7.473,6.086-11.517,13.559-11.517h13.222l-4.064,23.054Zm8.6-17.385h-3.41c-4.064,0-6.462,1.8-7.176,5.848-.753,4.064.753,5.868,4.817,5.868h3.727Z" transform="translate(-164.816 -33.754)" fill="#008de4"/>
    <path id="Path_706" data-name="Path 706" d="M500.883,273.8l2.359-13.42c.416-2.636-.654-3.786-3.291-3.786h-3.766l-3.033,17.187H485.5l5.531-31.38h7.652l-1.467,8.346h5.729c6.7,0,9.119,2.934,7.929,9.634l-2.359,13.42Z" transform="translate(-377.152)" fill="#008de4"/>
    <path id="Path_707" data-name="Path 707" d="M20.274,305c-3.687,0-4.222,2.4-4.559,3.846-.456,1.9-.615,2.676-.615,2.676H29.511c3.687,0,4.222-2.4,4.559-3.846.456-1.9.615-2.676.615-2.676Z" transform="translate(0 -50.191)" fill="#008de4"/>
  </g>
</svg>
