<svg xmlns="http://www.w3.org/2000/svg" xmlns:xlink="http://www.w3.org/1999/xlink" width="34" height="26" viewBox="0 0 34 26">
  <defs>
    <clipPath id="clip-path">
      <rect id="Rectangle_8" data-name="Rectangle 8" width="34" height="26" transform="translate(0 0)" fill="#fff"/>
    </clipPath>
  </defs>
  <g id="Group_25" data-name="Group 25" clip-path="url(#clip-path)">
    <path id="Path_16" data-name="Path 16" d="M28.413,2.532A27.678,27.678,0,0,0,21.581.413a.1.1,0,0,0-.11.052,19.28,19.28,0,0,0-.851,1.747,25.552,25.552,0,0,0-7.673,0A17.683,17.683,0,0,0,12.084.465a.108.108,0,0,0-.11-.052A27.6,27.6,0,0,0,5.142,2.532a.1.1,0,0,0-.045.039,28.327,28.327,0,0,0-4.958,19.1.115.115,0,0,0,.044.079A27.833,27.833,0,0,0,8.563,25.99a.109.109,0,0,0,.118-.039A19.893,19.893,0,0,0,10.4,23.162a.106.106,0,0,0-.058-.148,18.329,18.329,0,0,1-2.618-1.248.108.108,0,0,1-.011-.179c.176-.132.352-.269.52-.408a.1.1,0,0,1,.108-.015,19.849,19.849,0,0,0,16.868,0,.1.1,0,0,1,.11.013c.168.139.344.277.521.409a.108.108,0,0,1-.009.179,17.2,17.2,0,0,1-2.619,1.247.107.107,0,0,0-.057.149,22.335,22.335,0,0,0,1.713,2.788.106.106,0,0,0,.118.04,27.74,27.74,0,0,0,8.394-4.237.108.108,0,0,0,.044-.077,28.141,28.141,0,0,0-4.962-19.1A.085.085,0,0,0,28.413,2.532Zm-17.2,15.329A3.226,3.226,0,0,1,8.2,14.479,3.208,3.208,0,0,1,11.216,11.1a3.191,3.191,0,0,1,3.016,3.383A3.208,3.208,0,0,1,11.216,17.862Zm11.153,0a3.226,3.226,0,0,1-3.016-3.383A3.208,3.208,0,0,1,22.368,11.1a3.191,3.191,0,0,1,3.016,3.383A3.2,3.2,0,0,1,22.368,17.862Z" transform="translate(0 -0.217)" fill="#fff"/>
  </g>
</svg>
