<svg xmlns="http://www.w3.org/2000/svg" xmlns:xlink="http://www.w3.org/1999/xlink" width="210.016" height="209.486" viewBox="0 0 210.016 209.486">
  <defs>
    <linearGradient id="linear-gradient" x1="0.391" y1="0.074" x2="1" y2="1.179" gradientUnits="objectBoundingBox">
      <stop offset="0" stop-color="#e858ea"/>
      <stop offset="0.634" stop-color="#6b4aec"/>
      <stop offset="1" stop-color="#3b0fe6"/>
    </linearGradient>
    <filter id="Union_3" x="0" y="0" width="210.016" height="209.486" filterUnits="userSpaceOnUse">
      <feOffset dy="10" input="SourceAlpha"/>
      <feGaussianBlur stdDeviation="25" result="blur"/>
      <feFlood flood-color="#e557ea" flood-opacity="0.51"/>
      <feComposite operator="in" in2="blur"/>
      <feComposite in="SourceGraphic"/>
    </filter>
  </defs>
  <g transform="matrix(1, 0, 0, 1, 0, 0)" filter="url(#Union_3)">
    <path id="Union_3-2" data-name="Union 3" d="M53.087,58.486c0-3.013-.073-5.947.033-8.876A2.827,2.827,0,0,0,51.711,46.9a18.448,18.448,0,0,0-11.927-3.088,3.272,3.272,0,0,0-1.477.633c-2.618,1.713-5.233,3.431-7.806,5.211a1.451,1.451,0,0,1-1.946.015q-3.913-2.713-7.926-5.282a4.012,4.012,0,0,0-1.906-.581A17.813,17.813,0,0,0,6.9,47.221a2.128,2.128,0,0,0-.974,1.951c.055,3.072.022,6.144.022,9.3H.016V54.907c0-2.717-.055-5.434.038-8.147a3.272,3.272,0,0,1,.822-2.026,23.241,23.241,0,0,1,15.947-6.867c3.223-.163,6.048.381,8.531,2.531.967.837,2.155,1.413,3.181,2.191a1.389,1.389,0,0,0,1.93.025c2.026-1.436,4.116-2.784,6.192-4.151a2.571,2.571,0,0,1,1.093-.524C45.633,37.382,52.762,39.08,58.431,45a1.957,1.957,0,0,1,.562,1.178c.041,4.047.025,8.1.025,12.307ZM26.794,34.823V31.3c-5.013-.918-7.959-4.248-7.959-8.725V21.62h5.931v1.34c0,2.066,2.412,3.329,5.128,3.329,1.99,0,4.324-.88,4.324-3.061,0-5.09-14.809-2.067-14.809-11.825,0-3.788,2.22-7.118,7.385-7.959V0h5.74V3.52c4.86.88,7.194,3.941,7.194,8v1.263H33.8V11.365c0-1.646-1.951-2.756-4.4-2.756-2.219,0-4.018.88-4.018,2.641,0,4.017,14.81,1.875,14.81,11.709,0,4.133-2.679,7.462-7.654,8.381v3.482Z" transform="translate(75.5 65.5)" stroke="rgba(0,0,0,0)" stroke-width="1" fill="url(#linear-gradient)"/>
  </g>
</svg>
