<svg id="Layer_2" data-name="Layer 2" xmlns="http://www.w3.org/2000/svg" width="197.047" height="49.371" viewBox="0 0 197.047 49.371">
  <g id="Layer_1" data-name="Layer 1">
    <path id="Path_688" data-name="Path 688" d="M243.412,122.1a.65.65,0,0,1-.657.639h-12.1c.31,2.992,2.554,5.729,5.729,5.729a5.637,5.637,0,0,0,4.981-2.554.653.653,0,0,1,.529-.31.586.586,0,0,1,.6.6.566.566,0,0,1-.091.31,6.848,6.848,0,0,1-6.021,3.156c-4.069,0-6.988-3.649-6.988-7.535s2.9-7.535,6.988-7.535,7.006,3.613,7.024,7.5Zm-1.3-.566a6.018,6.018,0,0,0-5.729-5.729c-3.175,0-5.419,2.737-5.729,5.729Z" transform="translate(-187.546 -93.691)" fill="#8891b1"/>
    <path id="Path_689" data-name="Path 689" d="M350.173,92.468a.62.62,0,0,1,.6.6.586.586,0,0,1-.6.6h-3.248v12.753a.608.608,0,0,1-.6.6.62.62,0,0,1-.6-.6V93.672H342.6a.586.586,0,0,1-.6-.6.608.608,0,0,1,.6-.6h3.12V87.815a.648.648,0,0,1,.547-.639.6.6,0,0,1,.675.6v4.689Z" transform="translate(-279.601 -71.267)" fill="#8891b1"/>
    <path id="Path_690" data-name="Path 690" d="M442.077,68.245v7.718a.62.62,0,0,1-.6.6.586.586,0,0,1-.6-.6V68.245c0-2.609-1.478-5.2-4.379-5.2-3.722,0-5.328,3.248-5.109,6.586,0,.091.036.474.036.529v5.784a.648.648,0,0,1-.547.639.6.6,0,0,1-.675-.6V50.6a.608.608,0,0,1,.6-.6.62.62,0,0,1,.6.6V64.943a5.836,5.836,0,0,1,5.072-3.12C440.052,61.823,442.077,64.943,442.077,68.245Z" transform="translate(-351.709 -40.877)" fill="#8891b1"/>
    <path id="Path_691" data-name="Path 691" d="M551.612,122.1a.65.65,0,0,1-.657.639h-12.1c.31,2.992,2.554,5.729,5.729,5.729a5.637,5.637,0,0,0,4.981-2.554.653.653,0,0,1,.529-.31.586.586,0,0,1,.6.6.565.565,0,0,1-.091.31,6.848,6.848,0,0,1-6.021,3.156c-4.069,0-6.988-3.649-6.988-7.535s2.9-7.535,6.988-7.535c4.05,0,7.006,3.613,7.024,7.5Zm-1.314-.566a6.018,6.018,0,0,0-5.729-5.729c-3.175,0-5.419,2.737-5.729,5.729Z" transform="translate(-439.514 -93.691)" fill="#8891b1"/>
    <path id="Path_692" data-name="Path 692" d="M664.751,116.766a.615.615,0,0,1-.566.657c-3.558.529-5.163,3.43-5.163,6.805v5.784a.648.648,0,0,1-.547.639.6.6,0,0,1-.675-.6V116.857a.648.648,0,0,1,.547-.639.6.6,0,0,1,.675.6V119.5a6.454,6.454,0,0,1,5.072-3.3A.626.626,0,0,1,664.751,116.766Z" transform="translate(-537.783 -94.999)" fill="#8891b1"/>
    <path id="Path_693" data-name="Path 693" d="M742.112,122.1a.65.65,0,0,1-.657.639h-12.1c.31,2.992,2.554,5.729,5.729,5.729a5.637,5.637,0,0,0,4.981-2.554.653.653,0,0,1,.529-.31.586.586,0,0,1,.6.6.566.566,0,0,1-.091.31,6.848,6.848,0,0,1-6.021,3.156c-4.069,0-6.988-3.649-6.988-7.535s2.9-7.535,6.988-7.535,7.006,3.613,7.024,7.5Zm-1.3-.566a6.018,6.018,0,0,0-5.729-5.729c-3.175,0-5.419,2.737-5.729,5.729Z" transform="translate(-595.257 -93.691)" fill="#8891b1"/>
    <path id="Path_694" data-name="Path 694" d="M859.123,117.236v13.246a.62.62,0,0,1-.6.6.586.586,0,0,1-.6-.6v-2.518a5.7,5.7,0,0,1-5.036,3.43c-3.594,0-5.583-3.12-5.583-6.422v-7.754a.607.607,0,0,1,.6-.6.62.62,0,0,1,.6.6v7.754c0,2.609,1.478,5.2,4.379,5.2,4.069,0,5.036-3.813,5.036-8.028V117.2a.611.611,0,0,1,.821-.566A.662.662,0,0,1,859.123,117.236Z" transform="translate(-692.709 -95.323)" fill="#8891b1"/>
    <path id="Path_695" data-name="Path 695" d="M979.2,121.168v7.754a.62.62,0,0,1-.6.6.586.586,0,0,1-.6-.6v-7.754c0-2.609-1.478-5.163-4.379-5.163-3.649,0-5.036,3.9-5.036,6.933v5.984a.62.62,0,0,1-.6.6.586.586,0,0,1-.6-.6v-7.754c0-2.609-1.478-5.163-4.379-5.163-3.685,0-5.2,2.9-5.072,6.769,0,.091.036.255,0,.31v5.82a.648.648,0,0,1-.547.639.6.6,0,0,1-.675-.6V115.712a.648.648,0,0,1,.547-.639.6.6,0,0,1,.675.6v2.208a5.8,5.8,0,0,1,5.072-3.083,5.414,5.414,0,0,1,5.163,3.85,5.989,5.989,0,0,1,5.455-3.85c3.558,0,5.583,3.083,5.583,6.368Z" transform="translate(-782.149 -93.855)" fill="#8891b1"/>
    <path id="Path_697" data-name="Path 697" d="M0,25.142,15.143,34.1V0Z" fill="#8891b1" opacity="0.79"/>
    <path id="Path_698" data-name="Path 698" d="M83,0V34.1l15.162-8.958Z" transform="translate(-67.857)" fill="#63688e" opacity="0.8"/>
    <path id="Path_699" data-name="Path 699" d="M0,153.6l15.143,21.347V162.54Z" transform="translate(0 -125.576)" fill="#8891b1" opacity="0.72"/>
    <path id="Path_700" data-name="Path 700" d="M83,162.54v12.407L98.162,153.6Z" transform="translate(-67.857 -125.576)" fill="#63688e" opacity="0.8"/>
    <path id="Path_696" data-name="Path 696" d="M15.143,100.1,0,106.978l15.143,8.958,15.162-8.958Z" transform="translate(0 -81.837)" fill="#464a75" opacity="0.6"/>
  </g>
</svg>
