<svg id="XMLID_17_" xmlns="http://www.w3.org/2000/svg" width="50" height="50" viewBox="0 0 50 50">
  <path id="XMLID_22_" d="M117.5,92.5a25,25,0,1,0-28.9,24.7V99.733H82.253V92.5H88.6V86.993c0-6.26,3.726-9.726,9.438-9.726a38.14,38.14,0,0,1,5.6.493v6.151h-3.151c-3.11,0-4.068,1.932-4.068,3.9V92.5h6.932l-1.11,7.233H96.418V117.2A25,25,0,0,0,117.5,92.5Z" transform="translate(-67.5 -67.5)" fill="#1877f2"/>
  <path id="XMLID_18_" d="M195.086,161.266l1.11-7.233h-6.932v-4.685c0-1.973.973-3.9,4.068-3.9h3.151v-6.151a38.141,38.141,0,0,0-5.6-.493c-5.712,0-9.438,3.466-9.438,9.726v5.507H175.1v7.233h6.342v17.466a24.481,24.481,0,0,0,3.9.3,26.187,26.187,0,0,0,3.9-.3V161.266Z" transform="translate(-160.36 -129.033)" fill="#fff"/>
</svg>
