<svg xmlns="http://www.w3.org/2000/svg" width="90.201" height="64.766" viewBox="0 0 90.201 64.766">
  <g id="layer1" transform="translate(-183.614 -144.551)">
    <g id="g300" transform="translate(183.614 189.715)">
      <path id="path302" d="M-.767-.3h-.814l-.812,4.543H-1.6c1.875,0,2.711-.975,2.711-2.8C1.109.289.476-.3-.767-.3M-1.807,6.66H-2.824l-.991,5.69H-6.976L-4.314-2.714H-.136c2.461,0,4.585.95,4.585,3.884,0,3.795-2.529,5.489-6.256,5.489" transform="translate(6.976 2.714)" fill="#fff"/>
    </g>
    <g id="g304" transform="translate(194.771 194.405)">
      <path id="path306" d="M-.665-.294c-1.167,0-2.313,1.944-2.313,4.084,0,1.1.261,1.75.8,1.75C-1.249,5.541.071,3.422.567.656L.654.181A1.807,1.807,0,0,0-.665-.294M2.231,7.7H-.686l.26-1.514a3.186,3.186,0,0,1-2.9,1.732c-1.385,0-2.724-1.084-2.724-3.8,0-3.912,2.313-6.788,4.99-6.788a2.823,2.823,0,0,1,2.272.822l.107-.6h2.7L2.231,7.7Z" transform="translate(6.045 2.672)" fill="#fff"/>
    </g>
    <g id="g308" transform="translate(204.431 194.623)">
      <path id="path310" d="M-.835-1.177C-2.325,1.8-3.815,3.552-7.274,3.986L-7.6,1.869A5.2,5.2,0,0,0-4.2-.7l.3-.605-1.769-9.4h3.091l.777,5.531,2.55-5.531H3.963Z" transform="translate(7.596 10.708)" fill="#fff"/>
    </g>
    <g id="g312" transform="translate(215.928 194.405)">
      <path id="path314" d="M-1.754-1.281H-4.671l1.188-6.7c.085-.431.065-.864-.431-.864-.909,0-2.531,2.162-2.983,4.755l-.5,2.808h-2.922l1.193-6.7c.083-.431.066-.864-.434-.864-.908,0-2.527,2.162-2.984,4.755l-.5,2.808H-15.95l1.792-10.156h2.916l-.409,2.378c.649-1.061,1.664-2.6,3.413-2.6,1.578,0,2.271,1.017,2.161,2.639.562-.932,1.622-2.639,3.48-2.639,1.795,0,2.442,1.32,2.074,3.392Z" transform="translate(15.95 11.655)" fill="#fff"/>
    </g>
    <g id="g316" transform="translate(233.345 194.405)">
      <path id="path318" d="M-.651-.256c-.907,0-1.772,1.147-2.118,2.789C-.846,2.274.321,1.821.321.694a.872.872,0,0,0-.972-.95M-2.921,4.2c.045,1.119.521,1.683,1.492,1.683a6.012,6.012,0,0,0,3-1.079l.8,1.9A6.934,6.934,0,0,1-1.838,8.26c-2.27,0-4.084-1.1-4.084-4.171C-5.922.523-3.958-2.331-.5-2.331c2.592,0,3.715,1.126,3.715,2.854C3.217,3.332.927,4-2.921,4.2" transform="translate(5.922 2.331)" fill="#fff"/>
    </g>
    <g id="g320" transform="translate(243.608 194.405)">
      <path id="path322" d="M-1.057-1.281H-3.974l1.188-6.7c.088-.431.066-.864-.431-.864-.908,0-2.53,2.162-2.983,4.755l-.5,2.808H-9.614L-7.82-11.437H-4.9l-.409,2.378c.648-1.061,1.662-2.6,3.412-2.6,1.793,0,2.441,1.32,2.077,3.392Z" transform="translate(9.614 11.655)" fill="#fff"/>
    </g>
    <g id="g324" transform="translate(255.732 191.812)">
      <path id="path326" d="M-.681-.614H-2.193L-3.077,4.4c-.091.434.061.648.386.648a1.861,1.861,0,0,0,.823-.214l.3,2.008A4.347,4.347,0,0,1-3.988,7.6c-1.511,0-2.4-.953-2.032-3l.91-5.209H-6.191l.386-2.161h1.083l.6-2.2,2.811-.606-.5,2.81H-.292Z" transform="translate(6.191 5.585)" fill="#fff"/>
    </g>
    <g id="g328" transform="translate(261.912 194.405)">
      <path id="path330" d="M-.923-.409a4.865,4.865,0,0,0-2.4-.907c-.607,0-1.019.215-1.019.712,0,.453.456.651,1.061.907l.561.238A2.984,2.984,0,0,1-.532,3.48c0,2.161-1.147,3.394-3.74,3.394A6.513,6.513,0,0,1-8.4,5.383l1.144-2.009a5.554,5.554,0,0,0,2.725,1.1c.671,0,.948-.236.948-.733s-.474-.715-1.078-.952l-.584-.235a2.9,2.9,0,0,1-2.139-2.9c0-2.332,1.8-3.37,4.041-3.37a5.461,5.461,0,0,1,3.458,1.3Z" transform="translate(8.399 3.716)" fill="#fff"/>
    </g>
    <g id="g332" transform="translate(218.5 174.672)">
      <path id="path334" d="M-1.44-.321h-6.3l-.612,3.5h4.88l-.453,2.6H-8.8l-1.13,6.368h-3.163l2.668-15.063h9.46Z" transform="translate(13.095 2.916)" fill="#fff"/>
    </g>
    <g id="g336" transform="translate(228.757 179.362)">
      <path id="path338" d="M-.665-.294c-1.167,0-2.313,1.946-2.313,4.084,0,1.1.259,1.751.8,1.751C-1.249,5.542.071,3.426.565.659L.654.184A1.8,1.8,0,0,0-.665-.294m2.894,8H-.688l.26-1.513a3.183,3.183,0,0,1-2.9,1.73c-1.383,0-2.721-1.081-2.721-3.8C-6.045.2-3.732-2.67-1.056-2.67a2.825,2.825,0,0,1,2.272.821l.108-.6h2.7L2.229,7.7Z" transform="translate(6.045 2.67)" fill="#fff"/>
    </g>
    <g id="g340" transform="translate(239.433 179.363)">
      <path id="path342" d="M-.924-.408a4.883,4.883,0,0,0-2.4-.909c-.605,0-1.017.218-1.017.713,0,.454.456.648,1.058.908l.562.239A2.98,2.98,0,0,1-.537,3.48c0,2.163-1.146,3.393-3.738,3.393A6.529,6.529,0,0,1-8.4,5.385l1.148-2.012a5.519,5.519,0,0,0,2.721,1.1c.666,0,.951-.237.951-.734s-.476-.713-1.081-.952l-.583-.236a2.9,2.9,0,0,1-2.139-2.9c0-2.333,1.795-3.371,4.041-3.371A5.47,5.47,0,0,1,.112-2.421Z" transform="translate(8.404 3.715)" fill="#fff"/>
    </g>
    <g id="g344" transform="translate(249.502 176.769)">
      <path id="path346" d="M-.681-.614H-2.193L-3.081,4.4c-.085.431.065.648.388.648a1.864,1.864,0,0,0,.822-.217l.3,2.008A4.329,4.329,0,0,1-3.988,7.6c-1.511,0-2.4-.951-2.03-3l.908-5.21H-6.194l.391-2.16h1.08l.605-2.2,2.809-.606-.5,2.81H-.293Z" transform="translate(6.194 5.584)" fill="#fff"/>
    </g>
    <g id="g348" transform="translate(255.857 179.363)">
      <path id="path350" d="M-.651-.256c-.907,0-1.773,1.145-2.116,2.786C-.845,2.272.321,1.819.321.7A.87.87,0,0,0-.651-.256M-2.921,4.2c.045,1.124.52,1.686,1.493,1.686a5.994,5.994,0,0,0,3-1.079l.8,1.9A6.938,6.938,0,0,1-1.839,8.258c-2.269,0-4.084-1.1-4.084-4.169C-5.924.523-3.958-2.33-.5-2.33c2.59,0,3.713,1.124,3.713,2.853C3.216,3.332.926,4-2.921,4.2" transform="translate(5.924 2.33)" fill="#fff"/>
    </g>
    <g id="g352" transform="translate(266.122 179.362)">
      <path id="path354" d="M-.881-.39C-2.351-.39-4.038.863-4.6,4.019l-.5,2.808H-8.012L-6.218-3.329h2.852L-3.732-1.19A3.259,3.259,0,0,1-.319-3.545Z" transform="translate(8.012 3.545)" fill="#fff"/>
    </g>
    <g id="g356" transform="translate(186.998 144.551)">
      <path id="path358" d="M-5.213-2.588v.051c0,.725-.577,1.453-1.712,2L-44.958,17.885c-2.286,1.109-3.132.206-1.887-2.006l6.959-12.365a12.463,12.463,0,0,0,1.587-6.1,12.453,12.453,0,0,0-1.587-6.1l-6.959-12.365c-1.245-2.213-.4-3.116,1.887-2.007L-6.926-4.641c1.135.553,1.708,1.277,1.712,2Z" transform="translate(47.419 23.535)" fill="#176fc1"/>
    </g>
  </g>
</svg>
