<svg xmlns="http://www.w3.org/2000/svg" xmlns:xlink="http://www.w3.org/1999/xlink" width="719.799" height="448" viewBox="0 0 719.799 448">
  <defs>
    <linearGradient id="linear-gradient" x1="0.5" y1="-0.018" x2="0.5" y2="1" gradientUnits="objectBoundingBox">
      <stop offset="0" stop-color="#ff4991" stop-opacity="0.102"/>
      <stop offset="1" stop-color="#ff4991" stop-opacity="0"/>
    </linearGradient>
    <filter id="PATH_SHADOW" x="50.792" y="52.945" width="664.721" height="345.19" filterUnits="userSpaceOnUse">
      <feOffset dy="3" input="SourceAlpha"/>
      <feGaussianBlur stdDeviation="3" result="blur"/>
      <feFlood flood-opacity="0.161"/>
      <feComposite operator="in" in2="blur"/>
      <feComposite in="SourceGraphic"/>
    </filter>
    <filter id="PATH_1" x="49.531" y="50.513" width="670.268" height="333.813" filterUnits="userSpaceOnUse">
      <feOffset dy="3" input="SourceAlpha"/>
      <feGaussianBlur stdDeviation="3" result="blur-2"/>
      <feFlood flood-opacity="0.161"/>
      <feComposite operator="in" in2="blur-2"/>
      <feComposite in="SourceGraphic"/>
    </filter>
    <filter id="DAY" x="0" y="0" width="46" height="35" filterUnits="userSpaceOnUse">
      <feOffset dy="3" input="SourceAlpha"/>
      <feGaussianBlur stdDeviation="3" result="blur-3"/>
      <feFlood flood-opacity="0.161"/>
      <feComposite operator="in" in2="blur-3"/>
      <feComposite in="SourceGraphic"/>
    </filter>
    <filter id="WEEK" x="58" y="0" width="58" height="35" filterUnits="userSpaceOnUse">
      <feOffset dy="3" input="SourceAlpha"/>
      <feGaussianBlur stdDeviation="3" result="blur-4"/>
      <feFlood flood-opacity="0.161"/>
      <feComposite operator="in" in2="blur-4"/>
      <feComposite in="SourceGraphic"/>
    </filter>
    <filter id="MONTH" x="125" y="1" width="68" height="34" filterUnits="userSpaceOnUse">
      <feOffset dy="3" input="SourceAlpha"/>
      <feGaussianBlur stdDeviation="3" result="blur-5"/>
      <feFlood flood-opacity="0.161"/>
      <feComposite operator="in" in2="blur-5"/>
      <feComposite in="SourceGraphic"/>
    </filter>
    <filter id="YEAR" x="203" y="0" width="55" height="35" filterUnits="userSpaceOnUse">
      <feOffset dy="3" input="SourceAlpha"/>
      <feGaussianBlur stdDeviation="3" result="blur-6"/>
      <feFlood flood-opacity="0.161"/>
      <feComposite operator="in" in2="blur-6"/>
      <feComposite in="SourceGraphic"/>
    </filter>
    <filter id="ALL" x="268" y="0" width="44" height="35" filterUnits="userSpaceOnUse">
      <feOffset dy="3" input="SourceAlpha"/>
      <feGaussianBlur stdDeviation="3" result="blur-7"/>
      <feFlood flood-opacity="0.161"/>
      <feComposite operator="in" in2="blur-7"/>
      <feComposite in="SourceGraphic"/>
    </filter>
  </defs>
  <g id="GRAPH" transform="translate(9 6.81)">
    <g id="DATES" transform="translate(50.183 425.684)">
      <text id="JAN._15" data-name="JAN. 15" transform="translate(642.817 11.505)" fill="#43405a" font-size="14" font-family="Inter-SemiBold, Inter" font-weight="600"><tspan x="-51" y="0">JAN. 15</tspan></text>
      <text id="DEC._15" data-name="DEC. 15" transform="translate(-0.183 12.505)" fill="#43405a" font-size="14" font-family="Inter-SemiBold, Inter" font-weight="600"><tspan x="0" y="0">DEC. 15</tspan></text>
      <text id="DEC._20" data-name="DEC. 20" transform="translate(126.817 12.505)" fill="#43405a" font-size="14" font-family="Inter-SemiBold, Inter" font-weight="600"><tspan x="-27" y="0">DEC. 20</tspan></text>
      <text id="DEC._25" data-name="DEC. 25" transform="translate(230.817 12.505)" fill="#43405a" font-size="14" font-family="Inter-SemiBold, Inter" font-weight="600"><tspan x="-26" y="0">DEC. 25</tspan></text>
      <text id="DEC._31" data-name="DEC. 31" transform="translate(335.817 12.505)" fill="#43405a" font-size="14" font-family="Inter-SemiBold, Inter" font-weight="600"><tspan x="-26" y="0">DEC. 31</tspan></text>
      <text id="JAN._2" data-name="JAN. 2" transform="translate(431.817 11.505)" fill="#43405a" font-size="14" font-family="Inter-SemiBold, Inter" font-weight="600"><tspan x="-22" y="0">JAN. 2</tspan></text>
      <text id="JAN._8" data-name="JAN. 8" transform="translate(526.817 11.505)" fill="#43405a" font-size="14" font-family="Inter-SemiBold, Inter" font-weight="600"><tspan x="-22" y="0">JAN. 8</tspan></text>
    </g>
    <g id="PRICES" transform="translate(0.929 39.031)">
      <line id="Line_7" data-name="Line 7" x2="649.459" transform="translate(50.871 9.129)" fill="none" stroke="#43405a" stroke-linecap="round" stroke-width="2" stroke-dasharray="6 10" opacity="0.4"/>
      <text id="_8.7k" data-name="8.7k" transform="translate(0.071 13.159)" fill="#43405a" font-size="13" font-family="Inter-SemiBold, Inter" font-weight="600"><tspan x="0" y="0">8.7k</tspan></text>
      <line id="Line_7-2" data-name="Line 7" x2="649.459" transform="translate(50.871 64.195)" fill="none" stroke="#43405a" stroke-linecap="round" stroke-width="2" stroke-dasharray="6 10" opacity="0.4"/>
      <text id="_8k" data-name="8k" transform="translate(0.071 68.159)" fill="#43405a" font-size="13" font-family="Inter-SemiBold, Inter" font-weight="600"><tspan x="0" y="0">8k</tspan></text>
      <line id="Line_7-3" data-name="Line 7" x2="649.459" transform="translate(50.871 119.88)" fill="none" stroke="#43405a" stroke-linecap="round" stroke-width="2" stroke-dasharray="6 10" opacity="0.4"/>
      <text id="_7.5k" data-name="7.5k" transform="translate(0.071 123.159)" fill="#43405a" font-size="13" font-family="Inter-SemiBold, Inter" font-weight="600"><tspan x="0" y="0">7.5k</tspan></text>
      <line id="Line_7-4" data-name="Line 7" x2="649.459" transform="translate(50.871 174.946)" fill="none" stroke="#43405a" stroke-linecap="round" stroke-width="2" stroke-dasharray="6 10" opacity="0.4"/>
      <text id="_6.5k" data-name="6.5k" transform="translate(0.071 178.159)" fill="#43405a" font-size="13" font-family="Inter-SemiBold, Inter" font-weight="600"><tspan x="0" y="0">6.5k</tspan></text>
      <line id="Line_7-5" data-name="Line 7" x2="649.459" transform="translate(50.871 230.012)" fill="none" stroke="#43405a" stroke-linecap="round" stroke-width="2" stroke-dasharray="6 10" opacity="0.4"/>
      <text id="_5.5k" data-name="5.5k" transform="translate(0.071 232.159)" fill="#43405a" font-size="13" font-family="Inter-SemiBold, Inter" font-weight="600"><tspan x="0" y="0">5.5k</tspan></text>
      <line id="Line_7-6" data-name="Line 7" x2="649.459" transform="translate(50.871 285.078)" fill="none" stroke="#43405a" stroke-linecap="round" stroke-width="2" stroke-dasharray="6 10" opacity="0.4"/>
      <text id="_5k" data-name="5k" transform="translate(0.071 289.159)" fill="#43405a" font-size="13" font-family="Inter-SemiBold, Inter" font-weight="600"><tspan x="0" y="0">5k</tspan></text>
      <line id="Line_7-7" data-name="Line 7" x2="649.459" transform="translate(50.871 340.763)" fill="none" stroke="#43405a" stroke-linecap="round" stroke-width="2" stroke-dasharray="6 10" opacity="0.4"/>
      <text id="_3.5k" data-name="3.5k" transform="translate(0.071 345.159)" fill="#43405a" font-size="13" font-family="Inter-SemiBold, Inter" font-weight="600"><tspan x="0" y="0">3.5k</tspan></text>
    </g>
    <g transform="matrix(1, 0, 0, 1, -9, -6.81)" filter="url(#PATH_SHADOW)">
      <path id="PATH_SHADOW-2" data-name="PATH SHADOW" d="M162.111,464.937l16.1-8.06,16.014-23.759,15.9-9.431,14.154,9.431,16.557,16.157,17.48,11.909,7.737,27.008,12.244,17.48,20.806,5.863,29.528,13.644,21.674-6.144,26.807-13.364,22.778-17.48,18.434-2.591,8.37-20.263,19.956,8.835,19.082-17.3,17.768,4.306,11.818,9.338,20.959-25.786,16.434-27.343,13.539-21.859,25.126-17.24,27.3-32.488,9.612-28.383,11.041-11.5,13.2,6.381L653.4,335.62l10.866,42.672L680.515,389l18.392,28.39,15.741,27.343,7.22,43.456,12.241,23.344,12.933,7.5,22.487,6.144,14.02,27.431,8.736,20.047s9.606,26.22,13.769,37.193c1.157,3.05.345,20.374,1.355,23.037.192.505-644.82.014-645.3,0-3.2.084,0-167.55,0-167.55" transform="translate(-100.9 -246.98)" fill="url(#linear-gradient)"/>
    </g>
    <g transform="matrix(1, 0, 0, 1, -9, -6.81)" filter="url(#PATH_1)">
      <path id="PATH_1-2" data-name="PATH 1" d="M162.987,464.937l16.1-8.06L195.1,433.118l15.9-9.431,14.154,9.431,16.557,16.157,17.48,11.909,7.737,27.008,12.244,17.48,20.806,5.863,29.528,13.644,21.674-6.144,26.807-13.364,22.778-17.48L419.2,485.6l8.37-20.263,19.956,8.835,19.081-17.3,17.768,4.306,11.818,9.338,20.959-25.786,16.434-27.343,13.539-21.859,25.126-17.24,27.3-32.488,9.612-28.383,11.041-11.5,13.2,6.381,20.871,23.314,10.866,42.672L681.391,389l18.392,28.39,15.741,27.343,7.22,43.456,12.24,23.344,12.933,7.5,22.487,6.144,14.02,27.431,9.054,37.906,16.336,26.033" transform="translate(-101.77 -246.98)" fill="none" stroke="#ff4991" stroke-linecap="round" stroke-width="4"/>
    </g>
    <g transform="matrix(1, 0, 0, 1, -9, -6.81)" filter="url(#DAY)">
      <text id="DAY-2" data-name="DAY" transform="translate(23 20)" fill="#43405a" font-size="14" font-family="Inter-Medium, Inter" font-weight="500"><tspan x="-13" y="0">DAY</tspan></text>
    </g>
    <g transform="matrix(1, 0, 0, 1, -9, -6.81)" filter="url(#WEEK)">
      <text id="WEEK-2" data-name="WEEK" transform="translate(67 20)" fill="#43405a" font-size="14" font-family="Inter-Medium, Inter" font-weight="500"><tspan x="0" y="0">WEEK</tspan></text>
    </g>
    <g transform="matrix(1, 0, 0, 1, -9, -6.81)" filter="url(#MONTH)">
      <text id="MONTH-2" data-name="MONTH" transform="translate(134 20)" fill="#fff" font-size="13" font-family="Inter-Regular, Inter"><tspan x="0" y="0">MONTH</tspan></text>
    </g>
    <g transform="matrix(1, 0, 0, 1, -9, -6.81)" filter="url(#YEAR)">
      <text id="YEAR-2" data-name="YEAR" transform="translate(212 20)" fill="#43405a" font-size="14" font-family="Inter-Medium, Inter" font-weight="500"><tspan x="0" y="0">YEAR</tspan></text>
    </g>
    <g transform="matrix(1, 0, 0, 1, -9, -6.81)" filter="url(#ALL)">
      <text id="ALL-2" data-name="ALL" transform="translate(277 20)" fill="#43405a" font-size="14" font-family="Inter-Medium, Inter" font-weight="500"><tspan x="0" y="0">ALL</tspan></text>
    </g>
  </g>
</svg>
