<svg version="1.2" xmlns="http://www.w3.org/2000/svg" viewBox="0 0 46 62" width="46" height="62">
	<title>industry-award-svg</title>
	<defs>
		<linearGradient id="g1" x1="18.6" y1="6.3" x2="44.4" y2="71" gradientUnits="userSpaceOnUse">
			<stop offset="0" stop-color="#e858ea"/>
			<stop offset=".6" stop-color="#6b4aec"/>
			<stop offset="1" stop-color="#3b0fe6"/>
		</linearGradient>
	</defs>
	<style>
		.s0 { fill: url(#g1) } 
	</style>
	<g id="Layer">
		<path id="Path_733-2" fill-rule="evenodd" class="s0" d="m23.2 20.1l5.9 14.2 15.3 1.2-11.6 10 3.5 15-13.1-8-13.1 8 3.6-15-11.7-10 15.3-1.2zm0 14.5l-2 5-5.4 0.4 4.1 3.5-1.3 5.2 4.6-2.8 4.6 2.8-1.2-5.2 4-3.5-5.3-0.4zm-11.2-32.7v25.1h-5.6v-25.1zm27.9 0v25.1h-5.5v-25.1zm-14 0v14h-5.6v-14z"/>
	</g>
</svg>