<svg version="1.2" xmlns="http://www.w3.org/2000/svg" viewBox="0 0 72 62" width="72" height="62">
	<title>Industry-partner-svg</title>
	<defs>
		<linearGradient id="g1" x1="29.2" y1="6.4" x2="73" y2="71.6" gradientUnits="userSpaceOnUse">
			<stop offset="0" stop-color="#e858ea"/>
			<stop offset=".6" stop-color="#6b4aec"/>
			<stop offset="1" stop-color="#3b0fe6"/>
		</linearGradient>
	</defs>
	<style>
		.s0 { fill: url(#g1) } 
	</style>
	<g id="Layer">
		<path id="Union_2-2" fill-rule="evenodd" class="s0" d="m46 61v-8.5c0-1.2-0.2-2.5-0.7-3.6-0.5-1.2-1.2-2.2-2.1-3.1-0.9-0.9-1.9-1.6-3.1-2.1-1.1-0.5-2.4-0.7-3.6-0.7h-21c-1.2 0-2.5 0.2-3.6 0.7-1.2 0.5-2.2 1.2-3.1 2.1-0.9 0.9-1.6 1.9-2.1 3.1-0.5 1.1-0.7 2.4-0.7 3.6v8.5h-5v-8.5c0-1.9 0.4-3.8 1.1-5.5 0.7-1.8 1.8-3.4 3.1-4.8 1.4-1.3 3-2.4 4.8-3.1 1.7-0.7 3.6-1.1 5.5-1.1h21c1.9 0 3.8 0.4 5.5 1.1 1.8 0.7 3.4 1.8 4.8 3.1 1.3 1.4 2.4 3 3.1 4.8 0.7 1.7 1.1 3.6 1.1 5.5v8.5zm9.7-24.7l-7.7-7.8 3.5-3.5 6 6 12-12 3.5 3.5-13.7 13.8q-0.4 0.3-0.8 0.5-0.5 0.2-1 0.2-0.5 0-1-0.2-0.4-0.2-0.8-0.5zm-40-9.5c-4.8-4.9-5.6-12.6-1.8-18.4 3.9-5.7 11.3-7.9 17.6-5.3 6.4 2.7 10.1 9.4 8.7 16.2-1.3 6.8-7.3 11.7-14.2 11.7q-1.4 0-2.8-0.3-1.4-0.3-2.8-0.8-1.3-0.5-2.5-1.3-1.1-0.8-2.2-1.8zm0.8-10.3c0 3.8 2.3 7.3 5.9 8.8 3.5 1.4 7.6 0.6 10.3-2.1 2.7-2.7 3.5-6.8 2.1-10.3-1.5-3.6-5-5.9-8.8-5.9-1.2 0-2.5 0.2-3.6 0.7-1.2 0.5-2.2 1.2-3.1 2.1-0.9 0.9-1.6 1.9-2.1 3.1-0.5 1.1-0.7 2.4-0.7 3.6z"/>
	</g>
</svg>