<svg xmlns="http://www.w3.org/2000/svg" xmlns:xlink="http://www.w3.org/1999/xlink" width="101.833" height="91.302" viewBox="0 0 101.833 91.302">
  <defs>
    <linearGradient id="linear-gradient" x1="0.391" y1="0.074" x2="1" y2="1.179" gradientUnits="objectBoundingBox">
      <stop offset="0" stop-color="#e858ea"/>
      <stop offset="0.634" stop-color="#6b4aec"/>
      <stop offset="1" stop-color="#3b0fe6"/>
    </linearGradient>
  </defs>
  <g id="Group_16241" data-name="Group 16241" transform="translate(-0.006 -4.786)">
    <path id="Path_11117" data-name="Path 11117" d="M316.445,23.969A21.563,21.563,0,1,0,337.9,45.528a21.48,21.48,0,0,0-21.458-21.559m6.955,18.52a1.611,1.611,0,0,1-2.143-1.05c-1.285-2.734-5.6-3.758-8-1.9a2.16,2.16,0,0,0,.278,3.674,16.713,16.713,0,0,0,2.845,1.148,29.5,29.5,0,0,1,5.071,1.961,4.816,4.816,0,0,1,.129,8.25,12.975,12.975,0,0,1-2.414,1.144,8.106,8.106,0,0,1-1.166.3c0,.688.015,1.379,0,2.07-.03,1.139-.609,1.8-1.552,1.814a1.555,1.555,0,0,1-1.578-1.874c.189-1.547-.234-2.327-1.845-2.808A6.784,6.784,0,0,1,308.7,51.2a1.589,1.589,0,0,1,.743-2.275,1.567,1.567,0,0,1,2.116.924c.016.029.024.062.04.091a5.861,5.861,0,0,0,7.584,2.351,3.088,3.088,0,0,0,1.408-1.753c.206-.93-.594-1.6-1.424-1.937-1.04-.424-2.141-.7-3.209-1.055a29.741,29.741,0,0,1-3.367-1.2,5.674,5.674,0,0,1-3.394-5.509,5.316,5.316,0,0,1,4.232-4.846c1.273-.327,1.6-.893,1.428-2.047a5.3,5.3,0,0,1,0-1.294,1.564,1.564,0,0,1,1.575-1.488,1.52,1.52,0,0,1,1.543,1.506c.048.926.011,1.857.011,2.806.688.221,1.333.38,1.94.631a7.251,7.251,0,0,1,4.237,4.111,1.631,1.631,0,0,1-.764,2.269" transform="translate(-236.063 -19.183)" fill="url(#linear-gradient)"/>
    <path id="Path_11118" data-name="Path 11118" d="M35.443,297.551a1.413,1.413,0,0,1,.915.461q4.985,5.579,9.923,11.2c.927,1.057.719,2.133-.531,3.286-.869.8-1.542.733-2.581-.269-1.843-1.778-3.678-3.564-5.529-5.333a1.618,1.618,0,1,0-2.229,2.285c1.977,1.927,3.938,3.872,5.977,5.73a5.157,5.157,0,0,0,2.151,1.16c2.292.563,4.426-.567,5.793-2.906a5.1,5.1,0,0,0-.606-6.026c-3.342-3.793-6.713-7.559-10.047-11.359a4.01,4.01,0,0,0-3.231-1.455c-4.856.026-9.713.01-14.569.01H17.561c0-.437,0-.733,0-1.029-.027-3.394-2.014-5.357-5.427-5.36-2.328,0-4.657-.01-6.985,0a4.848,4.848,0,0,0-5.114,5.144q-.006,11.625,0,23.25a4.855,4.855,0,0,0,5.113,5.145c2.328.011,4.657,0,6.985,0,3.457,0,5.425-1.982,5.427-5.459q0-8.631,0-17.263v-1.106a1.575,1.575,0,0,1,.32-.111c5.854-.008,11.708-.021,17.561,0" transform="translate(-0.025 -230.449)" fill="url(#linear-gradient)"/>
    <path id="Path_11119" data-name="Path 11119" d="M141.772,140.716a14.375,14.375,0,1,0-14.205-14.461,14.345,14.345,0,0,0,14.205,14.461m.768-12.174c-.763-.318-1.581-.5-2.345-.821a4,4,0,0,1-2.558-4.888,3.443,3.443,0,0,1,1.935-2.284,1.057,1.057,0,0,0,.726-1.115c.011-1.193.656-1.892,1.609-1.868s1.454.684,1.58,1.921a1.419,1.419,0,0,0,.6.95,5.051,5.051,0,0,1,2.411,2.678,1.619,1.619,0,0,1-.759,2.122,1.532,1.532,0,0,1-2.131-.868,1.717,1.717,0,0,0-1.962-1.165c-.357.061-.66.435-.987.667.231.293.4.713.706.853.718.332,1.508.506,2.251.789a3.716,3.716,0,0,1,.491,7.025,1.435,1.435,0,0,0-.628.924c-.166,1.029-.741,1.673-1.639,1.655a1.566,1.566,0,0,1-1.535-1.637,1.186,1.186,0,0,0-.773-1.207,4.517,4.517,0,0,1-2.271-2.542,1.58,1.58,0,0,1,.785-2.1,1.517,1.517,0,0,1,2.084.8,2.016,2.016,0,0,0,2.231,1.282c.283-.038.532-.328.8-.5-.2-.229-.363-.562-.618-.668" transform="translate(-102.096 -89.611)" fill="url(#linear-gradient)"/>
    <path id="Path_11120" data-name="Path 11120" d="M185.72,331.417a5.3,5.3,0,0,0-6.639-3.1c-2.426.694-4.846,1.412-7.269,2.12q-7.461,2.178-14.923,4.357c-1.308.383-1.805,1.092-1.52,2.129.263.96,1.148,1.292,2.454.92.607-.173,1.213-.35,1.818-.527q10.09-2.938,20.18-5.877a2.186,2.186,0,0,1,3.007,1.325c.158.329.3.666.442,1,.661,1.567.348,2.449-1.158,3.294q-15.439,8.657-30.872,17.325a5.217,5.217,0,0,1-5.309.127c-2.835-1.463-5.7-2.873-8.549-4.3-1.633-.819-3.262-1.649-4.908-2.443A1.6,1.6,0,1,0,131,350.595c.115.066.231.131.35.19,4.575,2.288,9.134,4.609,13.739,6.836a22.623,22.623,0,0,0,3.528,1.028,29.831,29.831,0,0,0,4-1.416c2.689-1.38,5.287-2.935,7.926-4.413q11.657-6.531,23.315-13.06a5.114,5.114,0,0,0,2.852-5.539,12.015,12.015,0,0,0-.989-2.8" transform="translate(-104.054 -262.562)" fill="url(#linear-gradient)"/>
    <path id="Path_11121" data-name="Path 11121" d="M94.5,226.912a1.6,1.6,0,0,0-1.9-.492c-2.323.559-4.663,1.049-7.009,1.5-.854.165-1.558.416-1.717,1.366a1.728,1.728,0,0,0,1.123,1.9c4.2,2.287,8.372,4.621,12.589,6.874a3.8,3.8,0,0,0,2.079.38,46.864,46.864,0,0,0,11.273-2.828,111.227,111.227,0,0,0,18.346-9.091c1.189-.709,2.349-1.465,3.637-2.271-.735-.635-1.39-1.139-1.968-1.722a.8.8,0,0,0-1.192-.108,117.688,117.688,0,0,1-16.594,8.843,48.436,48.436,0,0,1-13.317,3.911,2.426,2.426,0,0,1-1.308-.236c-1.624-.832-3.218-1.721-4.817-2.6-1.1-.608-2.2-1.235-3.476-1.955l6.226-1.613a20.789,20.789,0,0,1-1.97-1.857" transform="translate(-67.101 -177.838)" fill="url(#linear-gradient)"/>
    <path id="Path_11122" data-name="Path 11122" d="M252.087,256.4c-1.482-.475-2.934-1.044-4.4-1.571a1.826,1.826,0,0,0-.655-.2c-1.568.1-3.134.236-4.7.359l-.1.212,4.5,2.878c-.188.077-.362.162-.545.221a140.775,140.775,0,0,1-18.507,4.736,67.583,67.583,0,0,1-18.444,1.245,4.87,4.87,0,0,0-1.665-.06c-1.339.37-2.641.876-3.958,1.327l-.157.335a6.416,6.416,0,0,0,1.9,1.011,44.063,44.063,0,0,0,7.322.721,116.124,116.124,0,0,0,12.406-.947,135.325,135.325,0,0,0,27.141-7.028,1.635,1.635,0,0,0,1.288-1.681c-.042-.9-.609-1.3-1.423-1.556" transform="translate(-162.832 -203.786)" fill="url(#linear-gradient)"/>
  </g>
</svg>
