<svg xmlns="http://www.w3.org/2000/svg" width="207.171" height="36.743" viewBox="0 0 207.171 36.743">
  <g id="Group_543" data-name="Group 543" transform="translate(-467 -2271)">
    <g id="Group_542" data-name="Group 542" transform="translate(467 2271)">
      <g id="Group_541" data-name="Group 541">
        <rect id="rect19" width="16.076" height="28.883" transform="translate(21.641 3.93)" fill="#ff5a00"/>
        <path id="XMLID_330_" d="M22.712,18.371A18.423,18.423,0,0,1,29.7,3.93,18.365,18.365,0,1,0,18.371,36.743,18.273,18.273,0,0,0,29.7,32.813,18.334,18.334,0,0,1,22.712,18.371Z" fill="#eb001b"/>
        <path id="path22" d="M529.3,18.371a18.354,18.354,0,0,1-29.7,14.441,18.41,18.41,0,0,0,0-28.883,18.354,18.354,0,0,1,29.7,14.441Z" transform="translate(-469.897)" fill="#f79e1b"/>
      </g>
    </g>
    <path id="XMLID_1775_" d="M69.562,676.609v-7.751a4.546,4.546,0,0,0-4.907-4.907,5.082,5.082,0,0,0-4.395,2.2,4.535,4.535,0,0,0-4.139-2.2,4.163,4.163,0,0,0-3.612,1.806v-1.55H49.8v12.4h2.709V669.76c0-2.2,1.159-3.236,2.965-3.236s2.709,1.159,2.709,3.236v6.848h2.709V669.76c0-2.2,1.294-3.236,2.965-3.236,1.806,0,2.709,1.159,2.709,3.236v6.848Zm40.186-12.4h-4.395v-3.748h-2.709v3.748H100.19v2.453h2.453v5.689c0,2.845,1.159,4.515,4.259,4.515a7.284,7.284,0,0,0,3.356-.9l-.783-2.333a4.334,4.334,0,0,1-2.333.647c-1.294,0-1.806-.783-1.806-2.062V666.66h4.395v-2.453Zm23-.271a3.672,3.672,0,0,0-3.236,1.806v-1.55H126.8v12.4h2.709V669.61c0-2.062.9-3.236,2.589-3.236a8.312,8.312,0,0,1,1.686.256l.783-2.589a10.729,10.729,0,0,0-1.821-.105ZM97.993,665.23a8.889,8.889,0,0,0-5.042-1.294c-3.1,0-5.162,1.55-5.162,4,0,2.062,1.55,3.236,4.259,3.612l1.294.135c1.415.256,2.2.647,2.2,1.294,0,.9-1.038,1.55-2.845,1.55a7.142,7.142,0,0,1-4.139-1.294L87.262,675.3a9.082,9.082,0,0,0,5.3,1.55c3.612,0,5.689-1.686,5.689-4,0-2.2-1.686-3.356-4.259-3.748l-1.294-.135c-1.159-.135-2.062-.391-2.062-1.159,0-.9.9-1.415,2.333-1.415a9.322,9.322,0,0,1,3.883,1.038l1.144-2.2Zm72.079-1.294a3.672,3.672,0,0,0-3.236,1.806v-1.55h-2.709v12.4h2.709V669.61c0-2.062.9-3.236,2.589-3.236a8.313,8.313,0,0,1,1.686.256l.783-2.559a8.259,8.259,0,0,0-1.821-.135Zm-34.617,6.472a6.207,6.207,0,0,0,6.592,6.457,6.49,6.49,0,0,0,4.395-1.415l-1.294-2.2a5.176,5.176,0,0,1-3.236,1.159,3.667,3.667,0,0,1-3.748-4,3.8,3.8,0,0,1,3.748-4,5.3,5.3,0,0,1,3.236,1.159l1.294-2.2a6.414,6.414,0,0,0-4.395-1.415,6.2,6.2,0,0,0-6.592,6.457Zm25.06,0v-6.2h-2.709v1.55a4.68,4.68,0,0,0-3.883-1.806,6.462,6.462,0,0,0,0,12.914,4.38,4.38,0,0,0,3.883-1.806v1.55h2.709v-6.2Zm-9.949,0a3.756,3.756,0,1,1,7.5,0,3.756,3.756,0,1,1-7.5,0Zm-32.42-6.472c-3.612,0-6.2,2.589-6.2,6.457a6.068,6.068,0,0,0,6.336,6.457,7.875,7.875,0,0,0,5.042-1.686l-1.294-1.942a6.153,6.153,0,0,1-3.612,1.294,3.492,3.492,0,0,1-3.748-2.965h9.166v-1.039c.12-3.988-2.212-6.577-5.689-6.577Zm0,2.333a3.019,3.019,0,0,1,3.1,2.965H114.79a3.266,3.266,0,0,1,3.356-2.965Zm67.308,4.139V659.3h-2.709v6.457a4.68,4.68,0,0,0-3.883-1.806,6.462,6.462,0,0,0,0,12.914,4.38,4.38,0,0,0,3.883-1.806v1.55h2.709v-6.2Zm-9.949,0a3.756,3.756,0,1,1,7.5,0,3.756,3.756,0,1,1-7.5,0Zm-90.7,0v-6.2H82.1v1.55a4.68,4.68,0,0,0-3.883-1.806,6.462,6.462,0,0,0,0,12.914,4.38,4.38,0,0,0,3.883-1.806v1.55h2.709v-6.2Zm-10.069,0a3.756,3.756,0,1,1,7.5,0,3.756,3.756,0,1,1-7.5,0Z" transform="translate(488.718 1621.7)" fill="#fff"/>
  </g>
</svg>
