<svg xmlns="http://www.w3.org/2000/svg" xmlns:xlink="http://www.w3.org/1999/xlink" width="112" height="112" viewBox="0 0 112 112">
  <defs>
    <linearGradient id="linear-gradient" x1="0.391" y1="0.074" x2="1" y2="1.179" gradientUnits="objectBoundingBox">
      <stop offset="0" stop-color="#e858ea"/>
      <stop offset="0.634" stop-color="#6b4aec"/>
      <stop offset="1" stop-color="#3b0fe6"/>
    </linearGradient>
  </defs>
  <g id="noun-data-science-3680770" transform="translate(-97.92 -27.923)">
    <path id="Union_13" data-name="Union 13" d="M48.07,104.071c0-.284.018-.553.033-.805a7.939,7.939,0,0,1,15.79-.05c.021.28.038.556.038.855a7.93,7.93,0,0,1-15.861,0Zm18.778,0c0-.365-.019-.708-.047-1.1a11.233,11.233,0,0,0-.261-1.327,46.466,46.466,0,0,0,14.278-5.937,10.241,10.241,0,0,0,.81,1.172,6.659,6.659,0,0,0,.694.778c.119.12.263.206.387.318a49.311,49.311,0,0,1-15.793,6.584.815.815,0,0,1-.093.011C66.83,104.4,66.847,104.241,66.847,104.071Zm-21.757.487A49.185,49.185,0,0,1,29.3,97.969c.122-.114.267-.2.388-.318.228-.232.433-.457.621-.689a10.189,10.189,0,0,0,.876-1.264,46.264,46.264,0,0,0,14.289,5.948,10.674,10.674,0,0,0-.28,1.427c-.022.324-.04.649-.04,1,0,.169.018.332.029.5A.738.738,0,0,1,45.09,104.559ZM16.4,95.6a7.917,7.917,0,0,1,0-11.214,6,6,0,0,1,.612-.544,7.909,7.909,0,0,1,10.6.544A7.962,7.962,0,0,1,28.067,95.1c-.146.176-.293.339-.446.493a7.924,7.924,0,0,1-11.219,0Zm67.98,0h0a3.764,3.764,0,0,1-.462-.517,7.927,7.927,0,0,1,10.453-11.7,7,7,0,0,1,1.225,1A7.93,7.93,0,1,1,84.382,95.6ZM56,93.226a10.886,10.886,0,0,0-1.456.136V82.589c.483.017.965.041,1.456.041s.979-.024,1.459-.041V93.362A10.877,10.877,0,0,0,56,93.226Zm-26.318-10.9a10.42,10.42,0,0,0-1.132-.93l8.123-8.124a8.566,8.566,0,0,0,1.437,2.685l-7.5,7.5A10.584,10.584,0,0,0,29.683,82.321ZM73.891,75.95a8.538,8.538,0,0,0,1.437-2.687l8.125,8.125a11.13,11.13,0,0,0-1.132.932,10.646,10.646,0,0,0-.932,1.128ZM7.5,67.177a1.382,1.382,0,0,1-.011-.354c.148.007.293.024.442.024a10.855,10.855,0,0,0,2.423-.283,46.846,46.846,0,0,0,5.931,14.252,10.005,10.005,0,0,0-1.077.736,8.523,8.523,0,0,0-.864.769c-.122.125-.21.27-.325.4A49.736,49.736,0,0,1,7.5,67.177Zm90.153,15.14a9.743,9.743,0,0,0-1.7-1.391c-.071-.046-.149-.077-.218-.122a46.321,46.321,0,0,0,5.87-14.268,10.274,10.274,0,0,0,1.659.284c.257.024.532.026.81.026.158,0,.31-.017.458-.023a49.139,49.139,0,0,1-6.423,15.69c-.042.068-.114.1-.164.156C97.839,82.553,97.762,82.425,97.654,82.317ZM39.245,71.1V67.132c3.433,3.279,9.58,5.429,16.756,5.429s13.323-2.149,16.755-5.429V71.1c0,4.667-7.671,8.612-16.755,8.613S39.245,75.771,39.245,71.1Zm0-10.067V57.064c3.434,3.279,9.58,5.43,16.756,5.43s13.323-2.151,16.756-5.43v3.972c0,4.667-7.672,8.611-16.756,8.611S39.244,65.7,39.244,61.036Zm64.251,2.878a7.932,7.932,0,0,1-.118-15.812c.226-.015.451-.033.694-.033a7.931,7.931,0,0,1,0,15.861h-.126C103.8,63.931,103.648,63.926,103.495,63.914ZM0,56a7.939,7.939,0,0,1,7.932-7.93c.261,0,.511.018.752.033A7.932,7.932,0,1,1,0,56Zm39.244-5.034V46.994c3.434,3.279,9.58,5.429,16.756,5.429s13.323-2.149,16.756-5.429v3.971c0,4.668-7.672,8.611-16.756,8.611S39.244,55.633,39.244,50.965Zm36.428,6.492V54.541H93.36A10.962,10.962,0,0,0,93.224,56a10.488,10.488,0,0,0,.143,1.457Zm-57.006,0A10.751,10.751,0,0,0,18.776,56a11,11,0,0,0-.136-1.458H36.328v2.916ZM39.244,40.9c0-4.668,7.675-8.612,16.755-8.612S72.755,36.227,72.755,40.9,65.083,49.507,56,49.507,39.244,45.562,39.244,40.9Zm-30.362,4.3c-.308-.022-.619-.04-.95-.04-.163,0-.322.017-.479.026.007-.051,0-.1.008-.153A49.621,49.621,0,0,1,14.032,29.3c.112.121.2.263.315.382a8.074,8.074,0,0,0,.666.6A10.7,10.7,0,0,0,16.3,31.2a46.685,46.685,0,0,0-5.942,14.28A10.9,10.9,0,0,0,8.881,45.195ZM95.725,31.179a10.706,10.706,0,0,0,1.93-1.5c.107-.107.182-.233.283-.341a1.415,1.415,0,0,1,.231.243,49.169,49.169,0,0,1,6.4,15.593c-.165-.008-.326-.025-.494-.025-.312,0-.6.018-.965.044a11.177,11.177,0,0,0-1.476.274A46.245,46.245,0,0,0,95.725,31.179ZM73.891,36.045l7.5-7.5a11.06,11.06,0,0,0,.932,1.132,11.248,11.248,0,0,0,1.129.932l-8.123,8.123A8.626,8.626,0,0,0,73.891,36.045ZM28.548,30.608a11.126,11.126,0,0,0,1.136-.927,10.372,10.372,0,0,0,.93-1.132l7.5,7.5a8.543,8.543,0,0,0-1.435,2.688Zm55.835-2.989h0a7.938,7.938,0,0,1-.4-10.773,5.4,5.4,0,0,1,.4-.443A7.931,7.931,0,1,1,95.6,27.618a8.021,8.021,0,0,1-1.924,1.415,7.8,7.8,0,0,1-3.634.882A8.023,8.023,0,0,1,84.382,27.619Zm-67.512.418a5.063,5.063,0,0,1-.461-.418A7.93,7.93,0,1,1,27.62,16.4a5.967,5.967,0,0,1,.448.5,7.931,7.931,0,0,1-11.2,11.136ZM56,29.37c-.492,0-.973.024-1.457.04V18.637A10.8,10.8,0,0,0,56,18.775a10.543,10.543,0,0,0,1.459-.142V29.41C56.977,29.394,56.494,29.37,56,29.37ZM66.538,10.4a10.661,10.661,0,0,0,.283-1.662c.024-.255.025-.532.025-.809,0-.165-.017-.326-.026-.492A49.589,49.589,0,0,1,82.7,14.027c-.122.112-.264.2-.384.316a7.548,7.548,0,0,0-.582.642,10.664,10.664,0,0,0-.932,1.322A46.644,46.644,0,0,0,66.538,10.4ZM30.315,15.046a8.547,8.547,0,0,0-.633-.7c-.118-.119-.26-.2-.382-.315A49.16,49.16,0,0,1,45.179,7.456c-.008.16-.025.314-.025.474,0,.3.018.577.042.894a10.742,10.742,0,0,0,.282,1.564A46.237,46.237,0,0,0,31.187,16.3,10.2,10.2,0,0,0,30.315,15.046ZM48.1,8.564h0c-.015-.207-.033-.412-.033-.634a7.931,7.931,0,0,1,15.862,0c0,.19,0,.378-.017.576A7.929,7.929,0,0,1,48.1,8.564Z" transform="translate(97.92 27.923)" fill="url(#linear-gradient)"/>
  </g>
</svg>
