<svg id="Group_544" data-name="Group 544" xmlns="http://www.w3.org/2000/svg" width="124.321" height="33.979" viewBox="0 0 124.321 33.979">
  <path id="path5689" d="M27.627,12.062H19.12a5.559,5.559,0,0,0-.486-2.815c-.511-.71-1.906-1.059-4.185-1.059a10.259,10.259,0,0,0-4.409.61c-.722.411-1.084,1.3-1.084,2.666a2.658,2.658,0,0,0,.959,2.441,4.042,4.042,0,0,0,1.819.486l1.719.125c3.674.249,5.979.411,6.888.511,2.9.3,5.02,1.071,6.328,2.317a6.156,6.156,0,0,1,1.843,3.836,27.394,27.394,0,0,1,.174,3.2,16.861,16.861,0,0,1-.785,6q-1.42,3.494-6.39,4.422a37.656,37.656,0,0,1-6.365.386q-7.137,0-9.965-.859A6.464,6.464,0,0,1,.635,30.086,18.847,18.847,0,0,1,0,24.182H8.507v.71c0,1.47.423,2.429,1.27,2.852a4.979,4.979,0,0,0,2.13.461h3.126a11.324,11.324,0,0,0,3.052-.249,2.5,2.5,0,0,0,1.545-1.482,5.883,5.883,0,0,0,.2-1.632c0-1.495-.548-2.4-1.632-2.728a51.468,51.468,0,0,0-5.692-.536c-2.715-.2-4.609-.386-5.667-.561Q2.653,20.233,1.27,17.8A12.746,12.746,0,0,1,.037,11.5,16.316,16.316,0,0,1,.7,6.382a5.54,5.54,0,0,1,2.13-2.927A10.78,10.78,0,0,1,8.333,1.649c1.856-.162,3.924-.249,6.191-.249a32.889,32.889,0,0,1,7.635.61q5.549,1.495,5.555,8.358c-.012.386-.037.947-.087,1.694" transform="translate(0 -1.226)" fill="#fff"/>
  <path id="path5693" d="M522.1,33.979V0h17.039a18.792,18.792,0,0,1,5.344.573,8.28,8.28,0,0,1,5.642,5.393,20.771,20.771,0,0,1,.747,6.44,23.947,23.947,0,0,1-.822,7.436,7.665,7.665,0,0,1-6.739,5.144c-.4.062-2.105.125-5.094.174l-1.52.05h-5.456v8.769Zm9.143-16.653h5.7a9.9,9.9,0,0,0,3.3-.423,2.452,2.452,0,0,0,1.084-1.781,15.4,15.4,0,0,0,.174-2.653,10.742,10.742,0,0,0-.349-3.2,2.725,2.725,0,0,0-2.367-1.781,16.889,16.889,0,0,0-1.769-.05h-5.779Z" transform="translate(-457.069)" fill="#fff"/>
  <path id="path5697" d="M745.742,28.1H733.51l-1.644,5.867H722.4L732.614,0H746.4L756.74,33.979h-9.267Zm-1.819-6.614L739.639,6.751l-4.16,14.723h8.445Z" transform="translate(-632.42)" fill="#fff"/>
  <path id="path5701" d="M261.995,6.972a12.012,12.012,0,0,1,9.354,4.459l1.968-4.222a17.324,17.324,0,0,0-27.8,5.8h-3.849l-2.267,4.87h4.945c-.037.448-.062.9-.062,1.358a14.609,14.609,0,0,0,.087,1.657h-2.479l-2.267,4.87h6.016a17.138,17.138,0,0,0,15.781,10.214,17.344,17.344,0,0,0,9.641-2.9V27.1a12.024,12.024,0,0,1-19.132-1.358h12.58l2.267-4.87H250.05a12.158,12.158,0,0,1-.137-1.794c0-.411.025-.822.062-1.221h18.2l2.267-4.87H251.557a12.08,12.08,0,0,1,10.438-6.016" transform="translate(-209.581 -2.189)" fill="#ffbe00"/>
  <path id="path5705" d="M260.419,6.058a11.864,11.864,0,0,1,9.242,4.409l.149.187.1-.212,1.968-4.222.05-.1-.075-.075a17.556,17.556,0,0,0-21.785-1.769,16.927,16.927,0,0,0-6.253,7.635l.137-.087H240l-.037.087-2.267,4.87-.1.212h5.169l-.149-.162c-.037.511-.062.959-.062,1.37a15.142,15.142,0,0,0,.087,1.669l.149-.162h-2.566l-.037.087L237.9,24.642l-.1.212h6.24l-.137-.087a17.494,17.494,0,0,0,25.634,7.374l.062-.037v-6.44l-.249.286a11.891,11.891,0,0,1-18.908-1.333l-.125.224h12.717l.037-.087,2.267-4.87.1-.212H248.474l.149.125a12.084,12.084,0,0,1-.137-1.769c0-.4.025-.81.062-1.208l-.149.137h18.3l.037-.087L269,12l.1-.212h-19.12l.125.224a11.983,11.983,0,0,1,10.313-5.954M249.981,12.1h18.9l-.137-.212-2.267,4.87.137-.087H248.275l-.012.137c-.037.411-.062.822-.062,1.233a12.905,12.905,0,0,0,.137,1.819l.025.125h16.853l-.137-.212-2.267,4.87.137-.087H250.056l.149.224a12.177,12.177,0,0,0,19.369,1.37l-.262-.1v5.966l.062-.125a17.186,17.186,0,0,1-9.554,2.877,16.968,16.968,0,0,1-15.644-10.127l-.037-.087h-6.116l.137.212,2.267-4.87-.137.087h2.641l-.012-.162c-.05-.548-.087-1.109-.087-1.644,0-.411.025-.859.062-1.358l.012-.162H237.8l.137.212L240.2,12l-.137.087h3.948l.037-.087a16.688,16.688,0,0,1,6.141-7.5,17.286,17.286,0,0,1,21.424,1.756l-.037-.174-1.968,4.222.249-.025a12.191,12.191,0,0,0-20.029,1.594l-.125.224h.274Z" transform="translate(-208.005 -1.138)" fill="#ffbe00"/>
</svg>
