<svg version="1.2" xmlns="http://www.w3.org/2000/svg" viewBox="0 0 113 99" width="113" height="99">
	<title>stats-svg</title>
	<defs>
		<linearGradient id="g1" x1="56.3" y1="27.9" x2="112" y2="94.6" gradientUnits="userSpaceOnUse">
			<stop offset="0" stop-color="#e858ea"/>
			<stop offset=".6" stop-color="#6b4aec"/>
			<stop offset="1" stop-color="#3b0fe6"/>
		</linearGradient>
		<linearGradient id="g2" x1="45.6" y1="10.9" x2="112" y2="114.2" gradientUnits="userSpaceOnUse">
			<stop offset="0" stop-color="#e858ea"/>
			<stop offset=".6" stop-color="#6b4aec"/>
			<stop offset="1" stop-color="#3b0fe6"/>
		</linearGradient>
		<linearGradient id="g3" x1="27.7" y1="71.2" x2="41.9" y2="86.2" gradientUnits="userSpaceOnUse">
			<stop offset="0" stop-color="#e858ea"/>
			<stop offset=".6" stop-color="#6b4aec"/>
			<stop offset="1" stop-color="#3b0fe6"/>
		</linearGradient>
	</defs>
	<style>
		.s0 { fill: url(#g1) } 
		.s1 { fill: url(#g2) } 
		.s2 { fill: url(#g3) } 
	</style>
	<g id="stats">
		<g id="Layer">
			<path id="Path_651-2" class="s0" d="m112 23.5v20.5q0 0.4-0.2 0.6-0.2 0.3-0.5 0.5-0.3 0.1-0.7 0-0.3 0-0.6-0.3l-6.2-6.2-17.8 17.7q-0.1 0.1-0.3 0.2-0.2 0.1-0.4 0.1-0.2 0.1-0.4 0-0.2 0-0.3-0.2l-11.4-7.5-14.9 11.2q-0.1 0.1-0.3 0.1-0.2 0.1-0.3 0.1-0.2 0-0.4 0-0.2-0.1-0.3-0.2l-11.2-7.4-19 12.7q-0.3 0.2-0.7 0.2-0.4 0.1-0.8 0-0.4 0-0.7-0.2-0.3-0.3-0.5-0.6l-3.3-4.8q-0.2-0.4-0.2-0.7-0.1-0.4 0-0.8 0-0.4 0.2-0.7 0.3-0.3 0.6-0.5l23.8-15.9q0.1-0.1 0.3-0.1 0.2-0.1 0.3-0.1 0.2 0 0.4 0.1 0.1 0 0.3 0.1l10.8 7.2 15-11.1q0.1-0.1 0.3-0.2 0.1-0.1 0.3-0.1 0.2 0 0.4 0.1 0.1 0 0.3 0.1l10.5 7 12.8-12.7-6.3-6.2q-0.2-0.3-0.3-0.6 0-0.4 0.1-0.7 0.1-0.3 0.4-0.5 0.3-0.2 0.7-0.2zm-9.8 60.3h-3.9q-0.3 0-0.7-0.1-0.4-0.2-0.6-0.5-0.3-0.2-0.5-0.6-0.1-0.4-0.1-0.7v-25.3q0-0.4 0.1-0.8 0.2-0.3 0.5-0.6 0.2-0.3 0.6-0.4 0.4-0.2 0.7-0.2h3.9q0.4 0 0.8 0.2 0.3 0.1 0.6 0.4 0.3 0.2 0.4 0.6 0.2 0.4 0.2 0.7v25.3q0 0.4-0.2 0.8-0.1 0.4-0.4 0.6-0.3 0.3-0.6 0.5-0.4 0.1-0.8 0.1zm-31.1 0h-3.9q-0.4 0-0.7-0.1-0.4-0.2-0.7-0.5-0.3-0.2-0.4-0.6-0.2-0.4-0.2-0.7v-17.6q0-0.4 0.2-0.7 0.1-0.4 0.4-0.6 0.3-0.3 0.7-0.5 0.3-0.1 0.7-0.1h3.9q0.4 0 0.7 0.1 0.4 0.2 0.7 0.5 0.2 0.2 0.4 0.6 0.1 0.3 0.1 0.7v17.6q0 0.3-0.1 0.7-0.2 0.4-0.4 0.6-0.3 0.3-0.7 0.5-0.3 0.1-0.7 0.1zm-15.6 0h-3.9q-0.4 0-0.7-0.2-0.4-0.1-0.6-0.4-0.3-0.2-0.5-0.6-0.1-0.4-0.1-0.7v-9.8q0-0.4 0.1-0.7 0.2-0.4 0.5-0.7 0.2-0.2 0.6-0.4 0.3-0.1 0.7-0.1h3.9q0.4 0 0.8 0.1 0.3 0.2 0.6 0.4 0.3 0.3 0.4 0.7 0.2 0.3 0.2 0.7v9.8q0 0.3-0.2 0.7-0.1 0.4-0.4 0.6-0.3 0.3-0.6 0.5-0.4 0.1-0.8 0.1zm31.2 0h-3.9q-0.4 0-0.8-0.1-0.3-0.2-0.6-0.5-0.3-0.2-0.4-0.6-0.2-0.4-0.2-0.7v-13.7q0-0.4 0.2-0.7 0.1-0.4 0.4-0.6 0.3-0.3 0.6-0.5 0.4-0.1 0.8-0.1h3.9q0.3 0 0.7 0.1 0.4 0.2 0.6 0.5 0.3 0.2 0.5 0.6 0.1 0.3 0.1 0.7v13.7q0 0.3-0.1 0.7-0.2 0.4-0.5 0.6-0.2 0.3-0.6 0.5-0.4 0.1-0.7 0.1z"/>
		</g>
		<g id="Layer">
			<path id="Path_652-2" class="s1" d="m110.1 89.6q0.4 0 0.7 0.2 0.4 0.1 0.6 0.4 0.3 0.3 0.5 0.6 0.1 0.4 0.1 0.8v3.9q0 0.4-0.1 0.7-0.2 0.4-0.5 0.7-0.2 0.2-0.6 0.4-0.4 0.1-0.7 0.1h-103.2q-0.8 0-1.5-0.3-0.7-0.3-1.3-0.8-0.5-0.6-0.8-1.3-0.3-0.7-0.3-1.5v-87.6q0-0.3 0.1-0.7 0.2-0.4 0.5-0.6 0.2-0.3 0.6-0.5 0.4-0.1 0.7-0.1h3.9q0.4 0 0.8 0.1 0.3 0.2 0.6 0.5 0.3 0.2 0.4 0.6 0.2 0.4 0.2 0.7v83.7z"/>
		</g>
		<g id="Layer">
			<path id="Path_653-2" class="s2" d="m24.4 83.8h-3.9q-0.4 0-0.7-0.1-0.4-0.2-0.7-0.5-0.2-0.2-0.4-0.6-0.1-0.4-0.1-0.7v-5.9q0-0.4 0.1-0.7 0.2-0.4 0.4-0.7 0.3-0.2 0.7-0.4 0.3-0.1 0.7-0.1h3.9q0.4 0 0.8 0.1 0.3 0.2 0.6 0.4 0.3 0.3 0.4 0.7 0.2 0.3 0.2 0.7v5.9q0 0.3-0.2 0.7-0.1 0.4-0.4 0.6-0.3 0.3-0.6 0.5-0.4 0.1-0.8 0.1zm15.6 0h-3.9q-0.4 0-0.8-0.1-0.3-0.2-0.6-0.5-0.3-0.2-0.4-0.6-0.2-0.4-0.2-0.7v-9.8q0-0.4 0.2-0.7 0.1-0.4 0.4-0.6 0.3-0.3 0.6-0.5 0.4-0.1 0.8-0.1h3.9q0.4 0 0.7 0.1 0.4 0.2 0.7 0.5 0.2 0.2 0.4 0.6 0.1 0.3 0.1 0.7v9.8q0 0.3-0.1 0.7-0.2 0.4-0.4 0.6-0.3 0.3-0.7 0.5-0.3 0.1-0.7 0.1z"/>
		</g>
	</g>
</svg>