<svg version="1.2" xmlns="http://www.w3.org/2000/svg" viewBox="0 0 57 58" width="57" height="58">
	<title>Successful-trader-svg</title>
	<defs>
		<linearGradient id="g1" x1="24" y1="4.8" x2="55.3" y2="62.3" gradientUnits="userSpaceOnUse">
			<stop offset="0" stop-color="#e858ea"/>
			<stop offset=".6" stop-color="#6b4aec"/>
			<stop offset="1" stop-color="#3b0fe6"/>
		</linearGradient>
	</defs>
	<style>
		.s0 { fill: url(#g1) } 
	</style>
	<g id="Layer">
		<path id="Union_4-2" fill-rule="evenodd" class="s0" d="m10 53q-1.3 0-2.5-0.6-1.2-0.5-2-1.5-0.9-1-1.3-2.2-0.3-1.2-0.1-2.5l3.8-28q0.2-1.1 0.7-2 0.5-1 1.3-1.7 0.9-0.7 1.9-1.1 1-0.4 2.1-0.4h4v-0.5c0-3 1.2-6 3.3-8.1 2.2-2.2 5.1-3.4 8.2-3.4 3 0 5.9 1.2 8.1 3.4 2.2 2.1 3.4 5.1 3.4 8.1v0.4h4.1q1.1 0 2.1 0.4 1 0.4 1.9 1.1 0.8 0.7 1.3 1.7 0.5 0.9 0.6 2l2.5 18.3-4.4-2.6-2-15.1q0-0.4-0.2-0.7-0.2-0.3-0.5-0.6-0.2-0.2-0.6-0.3-0.3-0.2-0.7-0.2l-31.2 0.1q-0.3 0-0.7 0.1-0.3 0.1-0.6 0.4-0.3 0.2-0.4 0.5-0.2 0.4-0.3 0.7l-3.8 28q-0.1 0.5 0 0.9 0.2 0.4 0.4 0.7 0.3 0.3 0.7 0.5 0.4 0.2 0.9 0.2h27.6l2.4 4zm11.9-40.5v0.4h15v-0.4c0-2-0.8-3.9-2.2-5.3-1.4-1.4-3.3-2.2-5.3-2.2-2 0-3.9 0.8-5.3 2.2-1.4 1.4-2.2 3.3-2.2 5.3zm30.1 39.9l-6.6-6.6-2.6 2.6q-0.2 0.1-0.3 0.3-0.2 0.1-0.4 0.1-0.2 0.1-0.3 0.2-0.2 0-0.4 0-0.1 0-0.1 0 0 0-0.1 0 0 0 0 0 0 0-0.1 0-0.2-0.1-0.4-0.2-0.2 0-0.4-0.2-0.2-0.1-0.4-0.2-0.1-0.2-0.2-0.4l-12-20c-0.2-0.4-0.3-0.8-0.3-1.2 0.1-0.5 0.3-0.9 0.6-1.2 0.3-0.3 0.7-0.5 1.1-0.5 0.5-0.1 0.9 0 1.3 0.2l20 12q0.4 0.2 0.6 0.6 0.3 0.4 0.3 0.9 0.1 0.4-0.1 0.8-0.1 0.5-0.4 0.8l-2.6 2.6 6.6 6.6c0.3 0.4 0.5 0.9 0.5 1.4-0.1 0.5-0.3 0.9-0.6 1.3-0.4 0.4-0.9 0.6-1.4 0.6-0.5 0-1-0.2-1.3-0.5zm-10.2-8.6l4.3-4.4-10.9-6.6z"/>
	</g>
</svg>