<svg id="Group_488" data-name="Group 488" xmlns="http://www.w3.org/2000/svg" width="50" height="50" viewBox="0 0 50 50">
  <circle id="Ellipse_71" data-name="Ellipse 71" cx="25" cy="25" r="25" fill="#35ace0"/>
  <path id="Path_661" data-name="Path 661" d="M42.765,76.8,53.841,72.24c1.093-.475,4.8-2,4.8-2s1.711-.666,1.569.951c-.048.666-.428,2.995-.808,5.514l-1.188,7.463s-.1,1.093-.9,1.284a3.91,3.91,0,0,1-2.377-.856c-.19-.143-3.565-2.282-4.8-3.328a.9.9,0,0,1,.048-1.521c1.711-1.569,3.755-3.518,4.991-4.754.57-.57,1.141-1.9-1.236-.285l-6.7,4.516a2.793,2.793,0,0,1-2.187.048c-1.426-.428-3.09-1-3.09-1s-1.141-.713.808-1.474Z" transform="translate(-27.625 -52.795)" fill="#fff"/>
</svg>
