<svg xmlns="http://www.w3.org/2000/svg" width="31.444" height="26" viewBox="0 0 31.444 26">
  <path id="Path_18" data-name="Path 18" d="M43.553,81.431l18.73-7.717c1.849-.8,8.119-3.376,8.119-3.376s2.894-1.125,2.653,1.608c-.08,1.125-.723,5.064-1.367,9.325l-2.01,12.621s-.161,1.849-1.527,2.17-3.617-1.125-4.019-1.447c-.322-.241-6.029-3.859-8.119-5.627a1.523,1.523,0,0,1,.08-2.572c2.894-2.653,6.351-5.949,8.441-8.039.965-.965,1.929-3.216-2.09-.482L51.109,85.531a4.723,4.723,0,0,1-3.7.08c-2.412-.723-5.225-1.688-5.225-1.688s-1.929-1.206,1.367-2.492Z" transform="translate(-41.625 -70.108)" fill="#fff"/>
</svg>
