<svg xmlns="http://www.w3.org/2000/svg" width="183.648" height="50" viewBox="0 0 183.648 50">
  <g id="Tether_Logo" transform="translate(-4.465 -13.693)">
    <circle id="Ellipse_73" data-name="Ellipse 73" cx="25" cy="25" r="25" transform="translate(4.465 13.693)" fill="#26a17b"/>
    <g id="Group_498" data-name="Group 498" transform="translate(13.886 25.988)">
      <path id="Path_701" data-name="Path 701" d="M46.149,59.3v0c-.173.012-1.065.064-3.051.064-1.588,0-2.7-.044-3.095-.064v0c-6.105-.269-10.659-1.33-10.659-2.6S33.9,54.355,40,54.086v4.152c.4.028,1.543.1,3.123.1,1.9,0,2.846-.08,3.023-.1V54.09c6.093.273,10.635,1.334,10.635,2.6s-4.546,2.331-10.635,2.6m0-5.639V49.946h8.5V44.283H31.506v5.663h8.5V53.66c-6.909.318-12.1,1.684-12.1,3.324s5.2,3.006,12.1,3.328V72.217h6.146V60.312c6.9-.318,12.082-1.684,12.082-3.324s-5.185-3.006-12.082-3.324" transform="translate(-27.905 -44.283)" fill="#fff"/>
    </g>
    <path id="Path_702" data-name="Path 702" d="M168.046,43.432v6h5.836v4.506h-5.876v9.136c0,2.018,1.113,3,2.745,3a5.982,5.982,0,0,0,2.532-.643l1.459,4.461a11.74,11.74,0,0,1-4.333.9c-4.59.173-7.592-2.444-7.592-7.721V53.943H158.87V49.437h3.947V43.991Zm100.615,5.723.386,2.444c1.632-2.617,3.818-3,5.965-3a8.023,8.023,0,0,1,5.446,2.014L278.1,55.156a5.23,5.23,0,0,0-3.774-1.375c-2.745,0-5.277,1.459-5.277,5.362V70.3h-5.233V49.148Zm-12.826,8.107c-.342-2.745-2.488-4.12-5.49-4.12-2.83,0-5.149,1.375-5.92,4.12ZM244.34,61.6c.342,2.617,2.617,4.506,6.306,4.506a8.745,8.745,0,0,0,5.663-1.973l3.344,3.3c-2.231,2.315-5.876,3.432-9.1,3.432-7.291,0-11.628-4.506-11.628-11.282,0-6.435,4.377-11.069,11.242-11.069,7.078,0,11.5,4.377,10.683,13.083ZM221.262,40.273V52.025a7.817,7.817,0,0,1,6.608-3.175c6,0,8.666,4.076,8.666,10.3V70.3H231.3V59.192c0-3.863-2.018-5.49-4.807-5.49-3.091,0-5.233,2.617-5.233,5.792V70.305h-5.233V40.277Zm-13.9,2.918v6H213.2V53.7h-5.876v9.136c0,2.018,1.117,3,2.745,3A5.983,5.983,0,0,0,212.6,65.2l1.459,4.461a11.74,11.74,0,0,1-4.333.9c-4.59.173-7.592-2.448-7.592-7.721V53.7h-3.947V49.2h3.947V43.75ZM192.905,57.263c-.342-2.745-2.488-4.12-5.49-4.12-2.83,0-5.149,1.375-5.92,4.12ZM181.41,61.6c.342,2.617,2.617,4.506,6.306,4.506a8.744,8.744,0,0,0,5.663-1.973l3.344,3.3c-2.231,2.315-5.876,3.432-9.1,3.432-7.3,0-11.628-4.506-11.628-11.282,0-6.435,4.377-11.069,11.238-11.069,7.078,0,11.5,4.377,10.683,13.083Z" transform="translate(-92.345 -15.897)" fill="#fff"/>
  </g>
</svg>
