<svg xmlns="http://www.w3.org/2000/svg" xmlns:xlink="http://www.w3.org/1999/xlink" width="112.337" height="112.346" viewBox="0 0 112.337 112.346">
  <defs>
    <linearGradient id="linear-gradient" x1="0.391" y1="0.074" x2="1" y2="1.179" gradientUnits="objectBoundingBox">
      <stop offset="0" stop-color="#e858ea"/>
      <stop offset="0.634" stop-color="#6b4aec"/>
      <stop offset="1" stop-color="#3b0fe6"/>
    </linearGradient>
  </defs>
  <path id="Union_14" data-name="Union 14" d="M-3535.87,112.346a2.253,2.253,0,0,1-2.246-2.247V17.832l11.945,7.964a6.609,6.609,0,0,0,1.535.766v85.785Zm15.726,0V26.564a6.327,6.327,0,0,0,1.481-.733l12-8V110.1a2.252,2.252,0,0,1-2.246,2.246Zm-56.167,0a2.247,2.247,0,0,1-2.247-2.247V40.3l11.945,7.96a6.6,6.6,0,0,0,1.536.767v63.318Zm15.726,0V49.03a6.33,6.33,0,0,0,1.481-.733l12-8v69.8a2.246,2.246,0,0,1-2.246,2.246Zm-40.442,0V71.475a5.061,5.061,0,0,0,1.483-.718l12-8V110.1a2.253,2.253,0,0,1-2.247,2.246Zm-15.726,0A2.252,2.252,0,0,1-3619,110.1V62.758l11.952,7.975a5.682,5.682,0,0,0,1.529.741v40.868Zm12.243-45.315-13.48-8.986A2.237,2.237,0,0,1-3619,56.176a2.233,2.233,0,0,1,1.011-1.865l13.48-8.987a2.163,2.163,0,0,1,2.471,0l13.48,8.987a2.233,2.233,0,0,1,1.011,1.865,2.24,2.24,0,0,1-1.011,1.866l-13.48,8.986a2.216,2.216,0,0,1-1.235.382A2.229,2.229,0,0,1-3604.509,67.027Zm40.441-22.468-13.48-8.987a2.234,2.234,0,0,1-1.011-1.865,2.238,2.238,0,0,1,1.011-1.866l13.48-8.986a2.161,2.161,0,0,1,2.471,0l13.48,8.986a2.238,2.238,0,0,1,1.011,1.866,2.234,2.234,0,0,1-1.011,1.865l-13.48,8.987a2.227,2.227,0,0,1-1.235.381A2.226,2.226,0,0,1-3564.067,44.559Zm43.924-18v0Zm-3.482-4.472-13.48-8.986a2.234,2.234,0,0,1-1.011-1.865,2.234,2.234,0,0,1,1.011-1.865l13.48-8.987a2.164,2.164,0,0,1,2.471,0l12.06,8.04,1.422.947a2.234,2.234,0,0,1,1.01,1.865,2.236,2.236,0,0,1-1.011,1.866l-13.48,8.986a2.221,2.221,0,0,1-1.235.382A2.213,2.213,0,0,1-3523.625,22.09Z" transform="translate(3619)" fill="url(#linear-gradient)"/>
</svg>
