<svg xmlns="http://www.w3.org/2000/svg" width="186.13" height="59.986" viewBox="0 0 186.13 59.986">
  <g id="Group_497" data-name="Group 497" transform="translate(158.244 -279.553)">
    <path id="Path_664" data-name="Path 664" d="M-150.549,400.885a19.4,19.4,0,0,0,1.728,1.873c.144.145.248.332.395.474.424.41.85.82,1.3,1.2.418.36.864.689,1.3,1.03.409.321.807.66,1.234.954.534.367,1.086.711,1.645,1.04.719.423,1.436.858,2.186,1.219a17.253,17.253,0,0,0,2.292.987c.585.184,1.145.449,1.731.63.717.222,1.448.4,2.176.587.51.129,1.024.242,1.539.347.253.052.514.064.77.1.33.049.659.106.988.16.021,0,.043.01.064.012.422.031.844.072,1.266.091.807.035,1.615.077,2.423.08.621,0,1.243-.035,1.862-.084.4-.031.787-.12,1.182-.171.3-.039.605-.049.905-.091.254-.036.5-.1.757-.149.179-.036.357-.081.538-.109a13.706,13.706,0,0,0,2.129-.51c.522-.168,1.054-.3,1.574-.472.44-.144.877-.3,1.3-.484.825-.354,1.653-.706,2.457-1.1.62-.306,1.213-.671,1.808-1.027.547-.328,1.09-.665,1.615-1.026.428-.294.831-.624,1.24-.945.435-.341.872-.681,1.294-1.037.234-.2.435-.434.66-.644.191-.177.395-.34.591-.512a2.208,2.208,0,0,0,.187-.186c.225-.251.453-.5.672-.757.288-.338.571-.681.853-1.025.254-.31.514-.616.752-.937.219-.3.425-.6.618-.915a18.718,18.718,0,0,0,1.065-1.858c.313-.665.664-1.313.944-1.991s.514-1.371.728-2.071c.157-.512.251-1.044.369-1.568.089-.4.184-.795.254-1.2a9.005,9.005,0,0,1,.111-.9c.133-.468-.006-.958.157-1.418a.713.713,0,0,0,.008-.229c0-.725.041-1.454-.015-2.174-.033-.423-.04-.846-.077-1.268s-.1-.812-.178-1.214c-.1-.506-.213-1.008-.327-1.51s-.227-1.029-.369-1.536c-.113-.4-.26-.8-.407-1.191a23.462,23.462,0,0,0-1.348-2.954q-.325-.6-.679-1.184c-.179-.3-.372-.585-.569-.869q-.315-.452-.651-.889c-.324-.42-.657-.833-.987-1.248a1.754,1.754,0,0,0-.138-.142c-.559-.56-1.117-1.12-1.679-1.677-.092-.091-.207-.157-.3-.243-.129-.114-.251-.236-.377-.355l.032-.063a1.345,1.345,0,0,1,.214.064,14.107,14.107,0,0,1,2.041,1.148c.553.4,1.148.732,1.707,1.119.417.289.809.616,1.209.929a30.468,30.468,0,0,1,2.571,2.491c.4.394.708.876,1.068,1.31a16.922,16.922,0,0,1,1.2,1.653q.324.5.624,1.024c.287.5.585.989.838,1.5.28.572.522,1.163.767,1.751.17.408.326.822.472,1.239.121.344.229.694.322,1.046.139.53.262,1.064.384,1.6.06.261.1.526.152.79s.1.507.143.76c0,.021.018.041.02.062.035.344.068.689.1,1.033a34.178,34.178,0,0,1,.07,3.481,7.361,7.361,0,0,1-.155,1.616c-.06.262-.055.538-.1.805-.046.307-.109.612-.167.918s-.1.639-.186.95q-.267,1-.571,1.981c-.15.483-.311.965-.5,1.432-.219.531-.477,1.047-.723,1.566-.14.3-.276.593-.441.875-.361.617-.728,1.231-1.115,1.831-.322.5-.671.982-1.021,1.462-.166.228-.366.431-.549.646-.323.38-.635.771-.971,1.14-.182.2-.405.362-.6.546s-.375.37-.571.544q-.67.6-1.352,1.181c-.354.3-.71.606-1.077.895-.349.275-.71.534-1.071.793-.255.183-.517.356-.779.528-.289.19-.579.379-.874.56a32.857,32.857,0,0,1-2.995,1.585c-.5.244-1.046.41-1.555.648a17.525,17.525,0,0,1-2,.731c-.479.156-.973.269-1.46.4-.414.112-.827.229-1.242.335-.177.045-.361.066-.54.1-.263.053-.523.115-.787.163-.212.039-.426.066-.64.092-.311.038-.623.07-.934.1-.452.05-.9.1-1.355.149a2.471,2.471,0,0,1-.263.01h-4.055c-.452-.147-.93-.013-1.39-.144a7.042,7.042,0,0,0-.971-.112c-.276-.038-.55-.1-.825-.148-.212-.038-.424-.073-.636-.114-.464-.09-.931-.172-1.391-.279-.418-.1-.833-.209-1.242-.338-.831-.262-1.664-.523-2.484-.817-.488-.175-.957-.4-1.429-.621-.562-.258-1.128-.51-1.674-.8-.593-.314-1.169-.659-1.743-1.007-.546-.33-1.089-.666-1.615-1.027-.428-.294-.829-.629-1.24-.947s-.8-.625-1.2-.938A.638.638,0,0,1-143.6,410c-.672-.643-1.356-1.275-2.01-1.935-.366-.37-.685-.786-1.023-1.184s-.669-.772-.986-1.172c-.268-.338-.516-.693-.764-1.047s-.5-.709-.726-1.075c-.316-.5-.615-1.019-.922-1.529-.106-.176-.223-.347-.319-.528-.105-.2-.192-.407-.287-.612Z" transform="translate(-6.562 -77.796)" fill="#2c2f7d"/>
    <path id="Path_665" data-name="Path 665" d="M-102.568,296.111a.667.667,0,0,1-.451-.341c-.038-.052-.056-.12-.1-.168-.285-.317-.574-.63-.863-.944-.311-.338-.607-.692-.938-1.008-.505-.483-1.028-.948-1.557-1.4-.5-.434-1-.878-1.54-1.264a14.591,14.591,0,0,0-1.829-1.245c-.279-.142-.529-.341-.8-.5-.549-.313-1.1-.628-1.66-.917q-.8-.411-1.627-.768c-.477-.206-.968-.379-1.455-.561-.335-.125-.671-.249-1.012-.358-.474-.151-.949-.3-1.429-.427q-.642-.174-1.294-.305c-.572-.115-1.149-.208-1.723-.311-.3-.054-.595-.113-.893-.164a2.534,2.534,0,0,0-.327-.021.8.8,0,0,1-.508-.089.188.188,0,0,0-.1-.018c-.435-.027-.87-.072-1.306-.077q-1.45-.018-2.9,0a5.76,5.76,0,0,0-1.2.092c-.46.105-.927.1-1.385.172q-.642.106-1.28.235c-.434.087-.866.187-1.3.283-.624.139-1.242.3-1.85.494s-1.2.37-1.789.589c-.488.182-.959.409-1.432.627-.623.287-1.247.573-1.861.881-.37.186-.722.408-1.079.619-.289.171-.576.346-.858.53-.392.255-.783.514-1.167.781q-.664.463-1.314.947c-.192.143-.37.306-.549.466-.31.277-.615.559-.922.839-.4.367-.825.716-1.2,1.107s-.713.821-1.065,1.235c-.134.158-.272.313-.4.479-.384.512-.775,1.02-1.14,1.545a19.642,19.642,0,0,0-1.784,3.228c-.344.772-.646,1.565-.927,2.362-.172.488-.25,1.008-.41,1.5-.128.4-.165.806-.265,1.2-.148.582-.134,1.189-.273,1.761-.124.509.009,1.027-.159,1.52a.583.583,0,0,0-.007.2c.025.941.038,1.882.083,2.822.018.364.114.723.168,1.086.035.236.044.477.092.711.109.528.234,1.051.353,1.577.05.222.087.448.152.666.179.6.348,1.209.561,1.8.181.5.416.979.633,1.464.165.367.333.733.512,1.094.135.272.277.542.436.8.363.594.721,1.193,1.115,1.766.314.456.69.867,1.019,1.313a21.315,21.315,0,0,0,2.181,2.358c.208.208.441.39.66.587a.342.342,0,0,1,.114.211,1.193,1.193,0,0,1-.15-.054c-.3-.154-.6-.306-.9-.469-.352-.194-.7-.391-1.046-.6-.417-.255-.831-.515-1.235-.789-.611-.415-1.193-.869-1.769-1.333a25.407,25.407,0,0,1-2.144-1.98,12.642,12.642,0,0,1-.931-1.015c-.559-.708-1.114-1.42-1.627-2.161a24.678,24.678,0,0,1-1.964-3.466c-.145-.3-.267-.62-.382-.937-.259-.714-.53-1.424-.751-2.149a8.727,8.727,0,0,1-.408-1.637c-.037-.362-.164-.714-.233-1.074-.057-.3-.086-.6-.131-.9a34.843,34.843,0,0,1-.138-4.922,9.909,9.909,0,0,1,.134-1.3c.059-.483.114-.967.2-1.446.075-.425.174-.848.288-1.265.176-.647.367-1.29.564-1.931a8.455,8.455,0,0,1,.32-.887c.281-.648.565-1.3.873-1.932a19.422,19.422,0,0,1,1.442-2.559c.344-.5.7-.991,1.06-1.485.378-.524.818-.99,1.222-1.488a14.272,14.272,0,0,1,1.234-1.312c.448-.429.932-.819,1.4-1.227.206-.179.408-.364.618-.537.319-.263.637-.526.967-.774.373-.28.75-.557,1.142-.809.593-.382,1.209-.731,1.8-1.115a22.141,22.141,0,0,1,2.215-1.2c.388-.193.8-.347,1.2-.512.622-.256,1.241-.523,1.873-.752.478-.174.975-.3,1.464-.441.415-.121.829-.244,1.247-.35.294-.075.595-.12.892-.182.168-.034.338-.065.5-.112.427-.123.883-.087,1.306-.248a1.95,1.95,0,0,1,.548-.066c.324-.023.644-.1.964-.125,1.631-.137,3.268-.071,4.9-.076a6.351,6.351,0,0,1,1.273.08c.482.1.969.106,1.45.179.4.061.8.167,1.2.249.455.093.915.168,1.367.275.43.1.853.234,1.278.355.354.1.711.2,1.061.311q.771.256,1.532.541c.346.129.686.274,1.025.42.479.207.959.414,1.432.635.226.106.436.247.656.365.461.247.937.47,1.385.739.559.335,1.1.7,1.641,1.064.512.348,1.012.712,1.513,1.076.176.128.341.272.507.413.265.225.524.459.792.68.942.777,1.748,1.694,2.616,2.547a11.225,11.225,0,0,1,.765.931c.145.177.3.349.439.528.257.323.52.642.759.978.379.53.751,1.065,1.108,1.611.244.373.455.768.681,1.152.193.328.388.655.578.985C-102.719,295.8-102.661,295.928-102.568,296.111Z" fill="#69affd"/>
    <path id="Path_666" data-name="Path 666" d="M-54.091,413.316a9.206,9.206,0,0,1,.99-2.166,9.255,9.255,0,0,1,1.494-1.731,6.256,6.256,0,0,1,1.378-.986c.348-.177.692-.366,1.049-.522a5.889,5.889,0,0,1,1.263-.418c.36-.068.711-.2,1.073-.239s.746-.12,1.127-.147c2.007-.142,4.014-.037,6.021-.059s4.022,0,6.033,0h6.493a4.114,4.114,0,0,1-.113.439,9.385,9.385,0,0,1-.956,1.927,8.193,8.193,0,0,1-.876,1.135c-.135.139-.215.34-.365.455a16.845,16.845,0,0,1-1.555,1.186,9.87,9.87,0,0,1-1.54.7c-.23.09-.489.1-.727.174a8.324,8.324,0,0,1-1.347.2c-.779.106-1.555.028-2.33.063l-.359.018v.441q0,7.4,0,14.8a8.238,8.238,0,0,1-.222,1.672,5.622,5.622,0,0,1-.495,1.272A12.9,12.9,0,0,1-38.8,432.7a6.273,6.273,0,0,1-1.042,1.135,8.378,8.378,0,0,1-1.627,1.193c-.291.172-.582.349-.888.491-.488.226-.99.426-1.466.628a.588.588,0,0,1-.058-.047.1.1,0,0,1-.015-.029.192.192,0,0,1-.007-.032.29.29,0,0,1,0-.033c0-.022,0-.044,0-.066s0-.022,0-.033v-.066q0-11.124,0-22.247c0-.011,0-.022,0-.033s0-.044,0-.066,0-.022,0-.033a.217.217,0,0,0,0-.033.213.213,0,0,0-.011-.031l-.032-.076c-.821-.012-1.664,0-2.506-.005s-1.692,0-2.538,0h-5.088Z" transform="translate(-89.841 -109.96)" fill="#69affd"/>
    <path id="Path_667" data-name="Path 667" d="M1023.871,437.861h.339c2.4,0,4.791-.024,7.186.009a11.179,11.179,0,0,1,4.429.84,6.259,6.259,0,0,1,3.106,2.914,11.051,11.051,0,0,1,1.075,3.644,23.43,23.43,0,0,1,.2,3.773,18.051,18.051,0,0,1-.661,4.937,7.258,7.258,0,0,1-1.864,3.211,6.591,6.591,0,0,1-2.6,1.5,10.667,10.667,0,0,1-3.172.515c-2.592.025-5.185.028-7.777.038-.085,0-.17-.014-.261-.023Zm4.474,17.164c.116,0,.191.012.267.011.867-.012,1.734-.027,2.6-.038a6.616,6.616,0,0,0,1.593-.219,3.086,3.086,0,0,0,2.2-1.823,7.253,7.253,0,0,0,.374-1.19,15.08,15.08,0,0,0,.281-3.236c.007-.58-.025-1.162-.064-1.741a8.972,8.972,0,0,0-.461-2.448,3.226,3.226,0,0,0-2.2-2.133,7.327,7.327,0,0,0-1.916-.259c-.8-.023-1.6-.006-2.406,0-.084,0-.168.015-.261.023Z" transform="translate(-1019.679 -136.547)" fill="#fff"/>
    <path id="Path_668" data-name="Path 668" d="M770.188,437.853h4.525c.006.122.017.248.017.374q0,3.527,0,7.054c0,1.945-.007,3.89,0,5.834a8.532,8.532,0,0,0,.275,2.147,2.6,2.6,0,0,0,2.315,2.077,5.958,5.958,0,0,0,1.964-.025,2.633,2.633,0,0,0,2.062-1.7,5.99,5.99,0,0,0,.408-1.956c.034-.646.042-1.294.043-1.941q.006-5.719,0-11.438v-.388c.251-.072,3.686-.1,4.349-.034.007.087.022.181.022.274,0,4.56.011,9.12-.006,13.679a11.293,11.293,0,0,1-.608,3.782,5.421,5.421,0,0,1-2.867,3.277,7.748,7.748,0,0,1-2.4.655,16.591,16.591,0,0,1-5.109-.146,6.26,6.26,0,0,1-2.257-.878,5.151,5.151,0,0,1-1.929-2.361,10.048,10.048,0,0,1-.739-3.392c-.047-.788-.064-1.578-.066-2.368q-.009-6.065,0-12.13Z" transform="translate(-800.854 -136.522)" fill="#fff"/>
    <path id="Path_669" data-name="Path 669" d="M901.343,455.8l.9-4.153c.32.095.6.179.882.261a21.954,21.954,0,0,0,4.283.857,7.059,7.059,0,0,0,2.193-.056,1.792,1.792,0,0,0,1.3-.86,2.3,2.3,0,0,0,.045-2.15,1.781,1.781,0,0,0-.712-.712,6.412,6.412,0,0,0-1.673-.681c-.655-.184-1.319-.334-1.975-.514a10.659,10.659,0,0,1-2.38-.946,5.259,5.259,0,0,1-2.811-4.132,9.932,9.932,0,0,1,.179-3.659,4.992,4.992,0,0,1,3.589-3.767,11.139,11.139,0,0,1,3.145-.458,18.607,18.607,0,0,1,3.733.269c.971.179,1.924.431,2.917.712-.31,1.388-.656,2.751-.983,4.15-.229-.064-.427-.121-.625-.175a19.136,19.136,0,0,0-3.879-.686,7.328,7.328,0,0,0-2.061.088,1.926,1.926,0,0,0-1.3.827,2.224,2.224,0,0,0,.125,2.358,2.862,2.862,0,0,0,.869.639,11.372,11.372,0,0,0,2.395.816,14.857,14.857,0,0,1,3.345,1.183,5.37,5.37,0,0,1,2.3,2.107,5.65,5.65,0,0,1,.653,2.092,10.018,10.018,0,0,1-.108,3.4,5.4,5.4,0,0,1-1.223,2.518,5.218,5.218,0,0,1-2.148,1.415,8.529,8.529,0,0,1-2.511.485,23.887,23.887,0,0,1-4.4-.168,17.107,17.107,0,0,1-2.975-.708Z" transform="translate(-913.96 -133.939)" fill="#fff"/>
    <path id="Path_670" data-name="Path 670" d="M358.87,459.4h-4.416V442.306c-1.08-.03-2.14-.009-3.2-.013s-2.107,0-3.153,0c-.073-.249-.092-3.805-.026-4.233h17.247v4.231H358.87Z" transform="translate(-436.71 -136.724)" fill="#fff"/>
    <path id="Path_671" data-name="Path 671" d="M671.664,494.892h-8.188a2.04,2.04,0,0,0,.88,1.966,3.045,3.045,0,0,0,1.6.455,10.955,10.955,0,0,0,3.641-.45c.291-.09.574-.207.894-.324l1.214,3.422c-.567.209-1.1.432-1.655.607a13.222,13.222,0,0,1-4.515.6,9.148,9.148,0,0,1-2.557-.415,4.663,4.663,0,0,1-3.018-2.911,9.516,9.516,0,0,1-.566-2.729c-.045-.634-.076-1.271-.065-1.906a11.807,11.807,0,0,1,.485-3.407,5.116,5.116,0,0,1,2.264-3,5.934,5.934,0,0,1,2.368-.752,9.987,9.987,0,0,1,3.079.082,4.759,4.759,0,0,1,2.423,1.184,4.544,4.544,0,0,1,1.139,1.79,9.614,9.614,0,0,1,.541,3.1c.017.779.028,1.558.041,2.336C671.666,494.636,671.664,494.744,671.664,494.892Zm-3.824-2.914a5.016,5.016,0,0,0-.269-1.713,1.506,1.506,0,0,0-1.147-.937,3.445,3.445,0,0,0-1.467,0,1.668,1.668,0,0,0-1.178.869,3.558,3.558,0,0,0-.376,1.683.322.322,0,0,0,.039.1Z" transform="translate(-705.223 -178.044)" fill="#fff"/>
    <path id="Path_672" data-name="Path 672" d="M557.356,489.241h4.123c.009.093.024.177.024.262q0,6.409.005,12.817a.37.37,0,0,1-.262.39,14.767,14.767,0,0,1-4.887,1.248,11.3,11.3,0,0,1-4.012-.316,4.242,4.242,0,0,1-3.132-3.2,9.393,9.393,0,0,1-.315-2.374c-.013-2.845-.005-5.689,0-8.534,0-.086.007-.173.012-.283H553c0,.114.009.24.009.367,0,2.636-.007,5.272.008,7.908a4.844,4.844,0,0,0,.179,1.2A1.655,1.655,0,0,0,554.56,500a4.592,4.592,0,0,0,2.433-.142c.363-.129.362-.139.362-.519q0-4.844,0-9.687Z" transform="translate(-609.968 -180.874)" fill="#fff"/>
    <path id="Path_673" data-name="Path 673" d="M473.059,500.771h-4.081c-.008-.1-.022-.18-.022-.263q0-6.411,0-12.822a.4.4,0,0,1,.237-.413,9.883,9.883,0,0,1,4.165-1.23,11.731,11.731,0,0,1,4.577.535c.156.052.308.118.46.181a.68.68,0,0,1,.108.083l-1.1,3.834a4.982,4.982,0,0,0-4.335-.2Z" transform="translate(-541.011 -178.086)" fill="#fff"/>
    <path id="Path_674" data-name="Path 674" d="M690.946,671.191h-.991l-.044-.441c-.118.095-.215.177-.317.252a1.218,1.218,0,0,1-.854.281c-.109-.011-.22,0-.33,0a1.329,1.329,0,0,1-1.385-1.187,4.915,4.915,0,0,1-.051-.685c-.007-.527,0-1.055,0-1.582,0-.292-.015-.292-.286-.315a1.15,1.15,0,0,0-1.3,1.062,6.966,6.966,0,0,0-.058.98c-.009.536,0,1.073,0,1.63H684.3v-4.572h.97c.011.207.02.4.031.612l.407-.389a1.223,1.223,0,0,1,1.131-.306,6.443,6.443,0,0,0,.975.066l.182.013c.007.106.02.2.02.3,0,.824,0,1.648,0,2.471a2.289,2.289,0,0,0,.085.58.677.677,0,0,0,.68.514c.768.04,1.117-.4,1.136-1.126.02-.779,0-1.56,0-2.34v-.383h1C690.99,666.833,691.015,670.658,690.946,671.191Z" transform="translate(-726.771 -333.776)" fill="#fff"/>
    <path id="Path_675" data-name="Path 675" d="M739.7,668.044h-1.038c-.023-.023-.046-.036-.052-.054a.69.69,0,0,0-.52-.5,1.257,1.257,0,0,0-.955.089.337.337,0,0,0,0,.627,4.071,4.071,0,0,0,.771.268c.336.1.681.161,1.014.264a1.162,1.162,0,0,1,.905.939,1.285,1.285,0,0,1-.659,1.42,1.982,1.982,0,0,1-1.033.285,4.532,4.532,0,0,1-1.209-.078,1.468,1.468,0,0,1-1.11-1.517h.975a.464.464,0,0,1,.06.119.734.734,0,0,0,.663.631,1.538,1.538,0,0,0,1.051-.121.421.421,0,0,0,.116-.668,1.076,1.076,0,0,0-.609-.3c-.339-.084-.683-.148-1.02-.241a3.081,3.081,0,0,1-.577-.228,1.2,1.2,0,0,1-.176-1.95,2.739,2.739,0,0,1,2.928.026A1.626,1.626,0,0,1,739.7,668.044Z" transform="translate(-771.194 -333.881)" fill="#fff"/>
    <path id="Path_676" data-name="Path 676" d="M655.152,661.173h-1.129V655.9h-1.94v-.949c.223-.066,4.485-.091,5.036-.026v.966h-1.967Z" transform="translate(-698.979 -323.758)" fill="#fff"/>
    <path id="Path_677" data-name="Path 677" d="M848.531,659.09l-.063.031a1.225,1.225,0,0,0-.63,1.349,5.421,5.421,0,0,1,0,.855c0,.02-.018.039-.035.072h-.726v-6.253h.772v3.6c.1-.082.136-.113.172-.148l1.488-1.444.023-.023a.878.878,0,0,1,.805-.336,4.012,4.012,0,0,0,.575,0,6.557,6.557,0,0,1-.884.877c-.275.28-.579.531-.894.817l1.91,2.878a3.337,3.337,0,0,1-.939.022c-.063,0-.13-.107-.176-.178-.392-.594-.78-1.191-1.169-1.787C848.687,659.32,848.613,659.212,848.531,659.09Z" transform="translate(-867.177 -323.98)" fill="#fff"/>
    <path id="Path_678" data-name="Path 678" d="M878.408,669.772h.757a1.7,1.7,0,0,1-.97,1.376,2.28,2.28,0,0,1-2.258-.151,1.992,1.992,0,0,1-.83-1.295,2.706,2.706,0,0,1,.365-2.257,2.064,2.064,0,0,1,3.011-.375,2.369,2.369,0,0,1,.709,1.445c.034.223.032.452.048.708H875.9a1.226,1.226,0,0,0,.818,1.347,1.677,1.677,0,0,0,1.056-.017C878.158,670.424,878.257,670.077,878.408,669.772Zm-2.505-1.295h2.446a1.206,1.206,0,0,0-1.423-1.159A1.162,1.162,0,0,0,875.9,668.477Z" transform="translate(-891.275 -333.844)" fill="#fff"/>
    <path id="Path_679" data-name="Path 679" d="M811.172,669.017a2.646,2.646,0,0,1,.3-1.331,1.97,1.97,0,0,1,1.665-1.068,2.086,2.086,0,0,1,2.13,1.01,2.547,2.547,0,0,1,.341,1.417,2.435,2.435,0,0,1-.612,1.687,1.8,1.8,0,0,1-.939.564,2.258,2.258,0,0,1-2.3-.582A2.409,2.409,0,0,1,811.172,669.017Zm3.561-.042a1.556,1.556,0,0,0-.144-.838,1.215,1.215,0,0,0-1.009-.79,1.2,1.2,0,0,0-1.271.566,2.067,2.067,0,0,0-.034,2.126,1.282,1.282,0,0,0,2.064.211A1.675,1.675,0,0,0,814.733,668.975Z" transform="translate(-836.207 -333.867)" fill="#fff"/>
    <path id="Path_680" data-name="Path 680" d="M1153.471,437.884a2.935,2.935,0,0,1,2.961-2.929,3,3,0,0,1,2.92,2.988,2.955,2.955,0,0,1-2.964,2.911A2.888,2.888,0,0,1,1153.471,437.884Zm2.948,2.45a2.431,2.431,0,1,0-2.45-2.4A2.446,2.446,0,0,0,1156.419,440.334Z" transform="translate(-1131.467 -134.048)" fill="#fff"/>
    <path id="Path_681" data-name="Path 681" d="M785.544,661.367h-.916c-.017-.461-.005-.917-.007-1.373s0-.922,0-1.383v-2.785H782.6V655.1h4.966v.71h-2.025Z" transform="translate(-811.563 -323.946)" fill="#fff"/>
    <path id="Path_682" data-name="Path 682" d="M909.13,671.273h-.771V666.7h.716c.011.163.022.33.036.545a1.23,1.23,0,0,0,.153-.116,1.766,1.766,0,0,1,1.75-.486,1.167,1.167,0,0,1,.9.639,1.375,1.375,0,0,1,.156.562c.014,1.13.007,2.261.007,3.418H911.3v-.356c0-.911-.009-1.823,0-2.734a.755.755,0,0,0-.576-.81,2.242,2.242,0,0,0-.714.018,1.229,1.229,0,0,0-.88,1.3c0,.746,0,1.493,0,2.24Z" transform="translate(-920.04 -333.86)" fill="#fff"/>
    <path id="Path_683" data-name="Path 683" d="M765.351,659.719h-.714v-.839h.7v-1.328h1.045v1.31h.9v.832h-.847a1.988,1.988,0,0,0-.035.246c0,.746,0,1.492,0,2.239,0,.394.089.474.49.476h.4v.8a2.839,2.839,0,0,1-1.177.031.8.8,0,0,1-.731-.763,2.547,2.547,0,0,1-.033-.391c0-.746,0-1.492,0-2.238Z" transform="translate(-796.067 -326.056)" fill="#fff"/>
    <path id="Path_684" data-name="Path 684" d="M585.481,661.959h.626c.04.626-.007,1.248.029,1.905.081-.049.142-.08.2-.119a1.405,1.405,0,0,1,2.2.648,2.889,2.889,0,0,1,0,2.127,1.407,1.407,0,0,1-2.292.587c-.032-.026-.067-.049-.128-.093l-.058.345h-.574Zm.633,3.485c0,.219,0,.438,0,.657a.589.589,0,0,0,.044.254.95.95,0,0,0,.875.537.817.817,0,0,0,.823-.49,2.25,2.25,0,0,0,.019-1.848.965.965,0,0,0-1.551-.231.711.711,0,0,0-.215.531C586.124,665.049,586.114,665.247,586.114,665.444Z" transform="translate(-641.529 -329.859)" fill="#fff"/>
    <path id="Path_685" data-name="Path 685" d="M614.323,673.6h.692c-.043.137-.074.25-.113.361-.457,1.316-.912,2.632-1.377,3.945a2.638,2.638,0,0,1-.3.616,1,1,0,0,1-1.227.379v-.465c.027-.014.036-.023.046-.023.7-.005.8-.188,1.042-.952a.611.611,0,0,0-.06-.344c-.376-1.054-.758-2.1-1.137-3.157-.04-.111-.075-.224-.119-.36h.715l.913,2.727C613.767,675.438,614.012,674.515,614.323,673.6Z" transform="translate(-664.201 -339.9)" fill="#fff"/>
    <path id="Path_686" data-name="Path 686" d="M-151.1,595.481l-.088.033c-.03-.046-.061-.092-.087-.141a.186.186,0,0,1,.042-.036C-151.184,595.384-151.141,595.433-151.1,595.481Z" transform="translate(-6.015 -272.392)" fill="#69affd"/>
    <path id="Path_687" data-name="Path 687" d="M1168.032,446.207l.8,1.252H1168l-.682-1.143h-.472v1.144h-.717v-3.334c.217,0,.423-.005.628,0a7.724,7.724,0,0,1,1.081.053,1.026,1.026,0,0,1,.8,1.444A1.107,1.107,0,0,1,1168.032,446.207Zm-1.172-1.442v.94c.22,0,.416,0,.612,0,.3-.008.46-.154.471-.431a.446.446,0,0,0-.443-.5C1167.294,444.753,1167.086,444.765,1166.859,444.765Z" transform="translate(-1142.385 -141.957)" fill="#fff"/>
  </g>
</svg>
