<svg id="Group_487" data-name="Group 487" xmlns="http://www.w3.org/2000/svg" width="50" height="50" viewBox="0 0 50 50">
  <circle id="Ellipse_71" data-name="Ellipse 71" cx="25" cy="25" r="25" fill="#03a9f4"/>
  <path id="Path_657" data-name="Path 657" d="M-34.614,625c.007.194.012.39.012.588,0,6.005-4.03,12.928-11.4,12.928a10.378,10.378,0,0,1-6.139-2.042,7.147,7.147,0,0,0,.956.063,7.459,7.459,0,0,0,4.974-1.943,4.116,4.116,0,0,1-3.741-3.158,3.443,3.443,0,0,0,.753.083,3.54,3.54,0,0,0,1.055-.16,4.444,4.444,0,0,1-3.211-4.456v-.057a3.649,3.649,0,0,0,1.815.568,4.723,4.723,0,0,1-1.782-3.782,4.977,4.977,0,0,1,.542-2.285,11,11,0,0,0,8.256,4.747,5.057,5.057,0,0,1-.106-1.035,4.3,4.3,0,0,1,4.006-4.543,3.789,3.789,0,0,1,2.923,1.435,7.513,7.513,0,0,0,2.545-1.1,4.5,4.5,0,0,1-1.763,2.512,7.338,7.338,0,0,0,2.3-.714A8.764,8.764,0,0,1-34.614,625Z" transform="translate(67.139 -604.513)" fill="#fff"/>
</svg>
