<svg version="1.2" xmlns="http://www.w3.org/2000/svg" viewBox="0 0 130 127" width="130" height="127">
	<title>Union 1-svg</title>
	<defs>
		<linearGradient id="g1" x1="52.1" y1="12.1" x2="127" y2="148.1" gradientUnits="userSpaceOnUse">
			<stop offset="0" stop-color="#e858ea"/>
			<stop offset=".6" stop-color="#6b4aec"/>
			<stop offset="1" stop-color="#3b0fe6"/>
		</linearGradient>
	</defs>
	<style>
		.s0 { fill: url(#g1) } 
	</style>
	<g id="Layer">
		<path id="Union_1-2" fill-rule="evenodd" class="s0" d="m115.2 124.9q-6.9-6.8-13.7-13.7-1-0.9-1.9-1.8c-1.3-1.4-1.3-2.7 0.1-4.1 0.4-0.5 1-0.9 1.4-1.3l-5.5-5.5c-7.2 5.6-15.4 7.7-24.5 5.4q-2.5-0.6-4.8-1.6-2.3-1.1-4.4-2.5-2-1.5-3.8-3.3-1.8-1.8-3.2-3.9c-1.8-2.7-3.2-5.8-4-9.1-0.8-3.2-1-6.6-0.6-9.9 0.4-3.3 1.4-6.5 3-9.5 1.5-2.9 3.5-5.6 6-7.8 2.5-2.3 5.4-4 8.5-5.2 3.1-1.3 6.4-1.9 9.8-2 3.3 0 6.7 0.5 9.8 1.7 3.2 1.1 6.1 2.8 8.6 5 2.8 2.3 5 5.2 6.7 8.4 1.6 3.2 2.7 6.7 3 10.3 0.3 3.6-0.1 7.2-1.1 10.7-1.1 3.4-2.8 6.6-5 9.5l5.4 5.4q0.2-0.2 0.4-0.4 0.2-0.2 0.3-0.4 0.2-0.2 0.4-0.4 0.2-0.2 0.4-0.4 0.3-0.4 0.8-0.7 0.5-0.2 1.1-0.2 0.5 0 1 0.2 0.5 0.3 0.8 0.7 8 7.9 15.9 15.8 0.1 0.2 0.2 0.3 0.2 0.1 0.3 0.3 0.1 0.1 0.2 0.2 0.1 0.2 0.2 0.3v1.7c-2.7 2.7-5.3 5.5-8 8.2q-0.2 0.2-0.4 0.3-0.2 0.1-0.4 0.2-0.2 0.1-0.4 0.2-0.2 0-0.4 0-0.4 0-0.7-0.1-0.3-0.1-0.6-0.2-0.2-0.2-0.5-0.3-0.2-0.2-0.4-0.5zm-10.2-17.6l12.2 12.3 3.3-3.3-12.2-12.2zm-49.8-30.5c0 3 0.6 6 1.7 8.7 1.1 2.8 2.8 5.3 4.9 7.4 2.1 2.1 4.6 3.8 7.4 5 2.7 1.1 5.7 1.7 8.7 1.7 3 0.1 5.9-0.5 8.7-1.7 2.7-1.1 5.2-2.7 7.3-4.8 2.1-2.1 3.8-4.6 5-7.4 1.1-2.7 1.7-5.7 1.7-8.7 0-2.9-0.5-5.9-1.7-8.6-1.1-2.8-2.7-5.3-4.8-7.4-2.1-2.2-4.6-3.8-7.3-5-2.8-1.2-5.7-1.8-8.7-1.8h-0.2c-3 0-5.9 0.6-8.7 1.7-2.7 1.2-5.2 2.9-7.3 4.9-2.1 2.1-3.8 4.6-4.9 7.4-1.2 2.7-1.8 5.6-1.8 8.6zm-25.5 18.4v-5.1h5v-10.3c-7.1 0-15.5 0-22.5 0-5 0-8.2-3.2-8.2-8.1q0-30.2 0-60.5c0-4.2 1.9-6.8 5.9-8q0.1 0 0.1-0.1 0.1 0 0.1 0 0 0 0.1-0.1 0 0 0 0h89.9q0 0 0.1 0 0 0.1 0.1 0.1 0 0 0.1 0 0 0.1 0.1 0.1c3.7 1 6 3.7 6 7.4 0 15.2 0 30.5 0 45.7q0 0 0 0.1 0 0 0 0.1-0.1 0-0.1 0.1 0 0 0 0.1h-5.1c0-14.5 0-30.5 0-45 0-2.9-0.7-3.6-3.7-3.6h-84.8c-3 0-3.7 0.7-3.7 3.7v59.3c0 2.9 0.8 3.6 3.7 3.6h32.1v5.1h-5v10.3h10.1v5.1zm61.6-18c-0.9-7.7-5.1-12-12.9-12.8v-4.9c8.1-0.6 18 6.9 17.8 17.7zm-70.7-7.8q-1.3-0.2-2.4-0.8-1.2-0.6-2-1.6-0.9-1-1.3-2.2-0.5-1.2-0.6-2.5c0-1.8 0-3.6 0-5.5h5.1q0 2.3 0 4.5c0 2.2 0.9 3.2 3.2 3.2q2.2 0 4.4 0v5c-1.3 0-2.7 0.1-4 0.1q-0.3 0-0.6-0.1-0.3 0-0.6 0-0.3 0-0.6 0-0.3-0.1-0.6-0.1zm-6.2-17.8v-5h5v5zm41.5-6.5q-1-0.7-1.7-1.7-0.7-1-1.1-2.2-0.4-1.2-0.4-2.4 0-1.2 0.4-2.4 0.1-0.2 0.1-0.4 0.1-0.2 0-0.5 0-0.2-0.2-0.4-0.1-0.2-0.3-0.3-3.2-3.1-6.3-6.3-0.1-0.2-0.3-0.3-0.1-0.1-0.3-0.2-0.2 0-0.4 0-0.2 0-0.4 0.1-0.6 0.3-1.2 0.4-0.7 0.1-1.3 0.1-0.6 0-1.3-0.1-0.6-0.1-1.2-0.3-0.2-0.1-0.4-0.2-0.2 0-0.5 0.1-0.2 0-0.4 0.2-0.2 0.1-0.3 0.3c-3.1 3.1-6.3 6.3-9.5 9.5l-3.5-3.7q0.3-0.4 0.8-0.9c2.8-2.8 5.7-5.7 8.6-8.5q0.2-0.2 0.3-0.4 0.1-0.2 0.2-0.4 0-0.2 0-0.4 0-0.3-0.1-0.5-0.4-1.1-0.4-2.3 0-1.3 0.3-2.4 0.4-1.2 1.1-2.2 0.7-1 1.7-1.7 1-0.7 2.2-1.1 1.1-0.4 2.3-0.4 1.2 0 2.4 0.4 1.1 0.4 2.1 1.1 1 0.7 1.7 1.6 0.8 1 1.2 2.2 0.3 1.2 0.3 2.4 0 1.2-0.4 2.4-0.1 0.2-0.1 0.4 0 0.3 0 0.5 0.1 0.3 0.2 0.5 0.2 0.2 0.4 0.3 3.1 3.1 6.2 6.2 0.1 0.2 0.3 0.3 0.1 0.1 0.4 0.2 0.2 0 0.4 0 0.2 0 0.4-0.1 0.6-0.2 1.3-0.3 0.6-0.1 1.2-0.1 0.7 0 1.3 0.1 0.7 0.1 1.3 0.3 0.1 0 0.3 0 0.2 0 0.4 0 0.1-0.1 0.3-0.1 0.2-0.1 0.3-0.2c2.2-2.1 4.3-4.3 6.5-6.4 0.5-0.6 0.4-1 0.2-1.6-0.3-1-0.4-2.1-0.3-3.1 0.1-1 0.4-2.1 0.9-3 0.5-0.9 1.1-1.7 2-2.3 0.8-0.7 1.7-1.1 2.7-1.4q1.6-0.4 3.1-0.2 1.6 0.2 2.9 1 1.3 0.8 2.3 2.1 0.9 1.3 1.2 2.8c0.3 1.3 0.3 2.7-0.1 4-0.4 1.2-1.1 2.4-2.1 3.3-1 0.9-2.2 1.6-3.5 1.9-1.3 0.3-2.7 0.2-3.9-0.2q-0.3-0.1-0.6-0.1-0.3 0-0.6 0-0.2 0.1-0.5 0.3-0.2 0.1-0.4 0.3c-2 2.1-4 4.1-6 6.1q-0.2 0.1-0.3 0.3-0.2 0.2-0.2 0.4-0.1 0.2-0.1 0.5 0 0.2 0.1 0.4 0.4 1.2 0.5 2.4 0 1.2-0.4 2.4-0.4 1.2-1.1 2.2-0.7 0.9-1.7 1.7-0.5 0.3-1 0.6-0.6 0.3-1.2 0.4-0.5 0.2-1.1 0.3-0.6 0.1-1.2 0.1-0.6 0-1.2-0.1-0.6-0.1-1.2-0.3-0.5-0.1-1.1-0.4-0.5-0.3-1-0.6zm4.5-8.8q-0.5 0-1 0.2-0.5 0.2-0.8 0.5-0.4 0.4-0.6 0.8-0.2 0.5-0.2 1 0 0.5 0.2 1 0.2 0.5 0.6 0.8 0.3 0.4 0.8 0.6 0.5 0.2 1 0.2 0.5 0 1-0.2 0.5-0.2 0.8-0.6 0.4-0.4 0.6-0.8 0.1-0.5 0.1-1 0-0.5-0.2-1-0.2-0.5-0.5-0.8-0.4-0.3-0.9-0.5-0.4-0.2-0.9-0.2zm15.4-15.3q0 0.5 0.2 0.9 0.2 0.5 0.6 0.8 0.3 0.4 0.8 0.6 0.4 0.1 0.9 0.1 0.5 0 1-0.2 0.5-0.2 0.8-0.5 0.4-0.3 0.6-0.8 0.2-0.5 0.2-1 0-0.5-0.2-0.9-0.2-0.5-0.5-0.9-0.4-0.4-0.9-0.6-0.4-0.2-1-0.2-0.5 0-0.9 0.2-0.5 0.2-0.9 0.6-0.3 0.4-0.5 0.9-0.2 0.4-0.2 1zm-35.9-0.1q0 0.5 0.2 1 0.2 0.5 0.6 0.8 0.3 0.3 0.8 0.5 0.5 0.2 1 0.2 0.5 0 0.9-0.2 0.5-0.1 0.8-0.5 0.4-0.3 0.6-0.8 0.2-0.4 0.2-0.9 0-0.6-0.2-1-0.1-0.5-0.5-0.9-0.4-0.4-0.8-0.6-0.5-0.2-1-0.2-0.5 0-1 0.2-0.5 0.2-0.9 0.6-0.3 0.4-0.5 0.9-0.2 0.4-0.2 0.9z"/>
	</g>
</svg>