<svg xmlns="http://www.w3.org/2000/svg" width="184.482" height="45" viewBox="0 0 184.482 45">
  <g id="Group_538" data-name="Group 538" transform="translate(-20 -20)">
    <path id="Path_725" data-name="Path 725" d="M622.489,140.181h1.5a.692.692,0,0,1,.691.691v13.4c0,4.233,2.293,6.907,6.562,6.907s6.562-2.674,6.562-6.907v-13.4a.692.692,0,0,1,.691-.691h1.5a.692.692,0,0,1,.691.691V154.3c0,5.765-3.161,9.44-9.44,9.44s-9.44-3.71-9.44-9.4V140.872A.68.68,0,0,1,622.489,140.181Zm22.6,18.251a.613.613,0,0,1,.9-.062,9.725,9.725,0,0,0,6.81,2.807c4.127,0,5.446-2.223,5.446-3.994,0-2.781-2.807-3.542-5.862-4.375-3.71-.974-7.846-2.01-7.846-6.562,0-3.817,3.4-6.42,7.952-6.42a11.031,11.031,0,0,1,7.757,2.763.691.691,0,0,1,.062.956l-.9,1.107a.606.606,0,0,1-.885.053,8.985,8.985,0,0,0-6.243-2.311c-2.781,0-4.755,1.5-4.755,3.675,0,2.329,2.674,3.02,5.623,3.817,3.781,1.01,8.085,2.187,8.085,7.049,0,3.365-2.294,6.8-8.536,6.8a11.612,11.612,0,0,1-8.466-3.232.692.692,0,0,1-.053-.921Zm19.57-17.56a.692.692,0,0,1,.691-.691h7.217c7.182,0,11.875,5.03,11.875,11.592,0,6.6-4.684,11.556-11.875,11.556h-7.217a.692.692,0,0,1-.691-.691Zm7.917,19.889c5.623,0,8.882-4.029,8.882-8.988,0-5-3.161-9.024-8.882-9.024h-5.03V160.76Zm40.672-5.827c0-4.862,3.2-8.784,8.3-8.784s8.3,3.923,8.3,8.784-3.2,8.82-8.3,8.82S713.247,159.786,713.247,154.934Zm13.85,0c0-3.4-1.975-6.456-5.552-6.456s-5.588,3.055-5.588,6.456c0,3.436,2.01,6.491,5.588,6.491S727.1,158.37,727.1,154.934Zm5.242-12.946a1.753,1.753,0,0,1,3.507,0,1.753,1.753,0,1,1-3.507,0Zm1.142,4.578h1.213a.692.692,0,0,1,.691.691v15.382a.692.692,0,0,1-.691.691h-1.213a.692.692,0,0,1-.691-.691V147.256A.692.692,0,0,1,733.481,146.565Zm16.9,5.8c0-2.949-1.5-3.887-3.746-3.887a6.485,6.485,0,0,0-4.968,2.6v11.556a.692.692,0,0,1-.691.691h-1.213a.692.692,0,0,1-.691-.691V147.256a.692.692,0,0,1,.691-.691h1.213a.692.692,0,0,1,.691.691v1.736a8.3,8.3,0,0,1,5.968-2.843c3.507,0,5.349,1.771,5.349,5.411v11.069a.692.692,0,0,1-.691.691h-1.213a.692.692,0,0,1-.691-.691V152.366Zm-59.366-.593a11.553,11.553,0,0,1,11.8-11.972,10.34,10.34,0,0,1,8.457,4.011.613.613,0,0,1-.177.912l-1.293.717a.7.7,0,0,1-.877-.168,7.9,7.9,0,0,0-6.11-2.9c-4.968,0-8.82,3.887-8.82,9.4,0,5.481,3.852,9.4,8.82,9.4a7.786,7.786,0,0,0,6.11-2.9.7.7,0,0,1,.877-.177l1.311.717a.611.611,0,0,1,.177.921,10.42,10.42,0,0,1-8.475,4A11.566,11.566,0,0,1,691.02,151.772Z" transform="translate(-548.507 -109.191)" fill="#fff"/>
    <circle id="Ellipse_74" data-name="Ellipse 74" cx="22.5" cy="22.5" r="22.5" transform="translate(20 20)" fill="#2775ca"/>
    <path id="Path_726" data-name="Path 726" d="M96.407,126.657a.672.672,0,0,1-.93.673,16.94,16.94,0,0,1,0-32.269.672.672,0,0,1,.93.673v1.311a1.012,1.012,0,0,1-.611.886,14.113,14.113,0,0,0,0,26.513,1.023,1.023,0,0,1,.611.886Z" transform="translate(-58.059 -68.375)" fill="#fff"/>
    <path id="Path_727" data-name="Path 727" d="M210.317,171.89a.711.711,0,0,1-.708.708H208.2a.711.711,0,0,1-.708-.708v-2.232c-3.082-.416-4.587-2.143-4.994-4.49a.657.657,0,0,1,.655-.762h1.612a.709.709,0,0,1,.691.576c.3,1.4,1.107,2.471,3.578,2.471,1.824,0,3.117-1.018,3.117-2.541s-.762-2.1-3.436-2.541c-3.949-.531-5.818-1.727-5.818-4.826,0-2.391,1.806-4.251,4.6-4.649v-2.187a.71.71,0,0,1,.708-.708h1.408a.71.71,0,0,1,.708.708v2.249a4.776,4.776,0,0,1,4.189,3.843.656.656,0,0,1-.646.788h-1.488a.717.717,0,0,1-.682-.522c-.4-1.364-1.373-1.948-3.064-1.948-1.868,0-2.834.9-2.834,2.17,0,1.337.549,2.01,3.418,2.426,3.879.531,5.88,1.638,5.88,4.941,0,2.506-1.86,4.534-4.773,5v2.232Z" transform="translate(-166.328 -118.488)" fill="#fff"/>
    <path id="Path_728" data-name="Path 728" d="M323.73,127.478a.672.672,0,0,1-.93-.673v-1.311a.938.938,0,0,1,.611-.886,14.113,14.113,0,0,0,0-26.513,1.023,1.023,0,0,1-.611-.886V95.9a.669.669,0,0,1,.93-.673,16.928,16.928,0,0,1,0,32.251Z" transform="translate(-275.986 -68.524)" fill="#fff"/>
  </g>
</svg>
