<svg xmlns="http://www.w3.org/2000/svg" width="100.678" height="32.583" viewBox="0 0 100.678 32.583">
  <g id="g4158" transform="translate(-81.166 -105.048)">
    <path id="polygon9" d="M441.663,142.268h-8.156l5.1-31.541h8.155Z" transform="translate(-316.87 -5.107)" fill="#00579f"/>
    <path id="path11" d="M589.643,106.39a20.1,20.1,0,0,0-7.315-1.343c-8.054,0-13.725,4.295-13.76,10.435-.067,4.53,4.061,7.046,7.148,8.557,3.155,1.544,4.228,2.551,4.228,3.927-.032,2.113-2.55,3.087-4.9,3.087a16.233,16.233,0,0,1-7.652-1.678l-1.074-.5-1.141,7.08a24.822,24.822,0,0,0,9.1,1.679c8.557,0,14.129-4.228,14.195-10.772.032-3.591-2.147-6.342-6.846-8.59-2.852-1.443-4.6-2.416-4.6-3.893.033-1.342,1.477-2.717,4.7-2.717a13.856,13.856,0,0,1,6.075,1.208l.738.335,1.109-6.811Z" transform="translate(-435.286)" fill="#00579f"/>
    <path id="path13" d="M803.14,131.094c.672-1.812,3.256-8.825,3.256-8.825-.034.067.67-1.845,1.073-3.02l.57,2.718s1.544,7.55,1.88,9.127Zm10.067-20.367H806.9c-1.945,0-3.423.57-4.263,2.617l-12.114,28.924h8.557s1.409-3.893,1.712-4.731h10.471c.234,1.107.973,4.731.973,4.731h7.551l-6.58-31.541Z" transform="translate(-637.943 -5.107)" fill="#00579f"/>
    <path id="path15" d="M185.971,110.727l-7.987,21.508-.873-4.362c-1.477-5.033-6.108-10.5-11.276-13.221l7.316,27.583h8.624L194.6,110.727h-8.624Z" transform="translate(-76.146 -5.107)" fill="#00579f"/>
    <path id="path17" d="M94.422,110.727H81.3l-.134.637c10.236,2.617,17.015,8.927,19.8,16.51l-2.852-14.5c-.47-2.015-1.913-2.585-3.691-2.651Z" transform="translate(0 -5.107)" fill="#faa61a"/>
  </g>
</svg>
