<svg id="Group_486" data-name="Group 486" xmlns="http://www.w3.org/2000/svg" width="50" height="50" viewBox="0 0 50 50">
  <circle id="Ellipse_70" data-name="Ellipse 70" cx="25" cy="25" r="25" fill="red"/>
  <g id="youtube_5_" data-name="youtube (5)" transform="translate(14 17)">
    <path id="Subtraction_5" data-name="Subtraction 5" d="M11.426,16c-.071,0-7.154-.006-8.941-.49A2.862,2.862,0,0,1,.47,13.5,30.25,30.25,0,0,1,0,8,30.353,30.353,0,0,1,.47,2.5,2.929,2.929,0,0,1,2.485.471C4.252.006,11.355,0,11.426,0S18.6.006,20.367.49A2.862,2.862,0,0,1,22.381,2.5a28.923,28.923,0,0,1,.471,5.516,30.36,30.36,0,0,1-.47,5.5,2.867,2.867,0,0,1-2.014,2.014C18.6,15.994,11.5,16,11.426,16ZM9.149,4.574h0v6.852L15.1,8,9.149,4.574Z" fill="#fff"/>
  </g>
</svg>
